<?xml version="1.0" encoding="utf-8" standalone="no"?>
<!DOCTYPE svg PUBLIC "-//W3C//DTD SVG 1.1//EN"
  "http://www.w3.org/Graphics/SVG/1.1/DTD/svg11.dtd">
<!-- Created with matplotlib (http://matplotlib.org/) -->
<svg height="468pt" version="1.1" viewBox="0 0 216 468" width="216pt" xmlns="http://www.w3.org/2000/svg" xmlns:xlink="http://www.w3.org/1999/xlink">
 <defs>
  <style type="text/css">
*{stroke-linecap:butt;stroke-linejoin:round;}
  </style>
 </defs>
 <g id="figure_1">
  <g id="patch_1">
   <path d="
M0 468
L216 468
L216 0
L0 0
z
" style="fill:#ffffff;"/>
  </g>
  <g id="axes_1">
   <g id="patch_2">
    <path d="
M75.6 134.894
L205.2 134.894
L205.2 23.4
L75.6 23.4
z
" style="fill:#ffffff;"/>
   </g>
   <g id="line2d_1">
    <path clip-path="url(#paf56127041)" d="
M205.2 134.894
L117.35 134.801
L116.481 134.576
L115.611 133.944
L114.741 132.392
L113.871 129.074
L113.001 122.944
L112.132 113.301
L110.392 88.3212
L109.522 80.2803
L108.652 80.208
L107.783 88.1379
L106.043 113.112
L105.173 122.812
L104.303 128.998
L103.434 132.354
L102.564 133.928
L101.694 134.57
L100.824 134.799
L99.0846 134.888
L77.3396 134.894
L75.6 134.894
L75.6 134.894" style="fill:none;stroke:#008000;stroke-linecap:square;"/>
   </g>
   <g id="line2d_2">
    <path clip-path="url(#paf56127041)" d="
M205.2 134.894
L136.486 134.794
L133.877 134.539
L132.137 134.121
L131.267 133.775
L130.397 133.295
L129.528 132.64
L128.658 131.761
L127.788 130.601
L126.918 129.102
L126.048 127.204
L125.179 124.857
L124.309 122.026
L123.439 118.708
L121.699 110.786
L119.09 97.6778
L118.22 93.824
L117.35 90.642
L116.481 88.3552
L115.611 87.1329
L114.741 87.0683
L113.871 88.1663
L113.001 90.343
L112.132 93.4367
L110.392 101.469
L107.783 114.494
L106.043 121.685
L105.173 124.569
L104.303 126.969
L103.434 128.914
L102.564 130.454
L101.694 131.648
L100.824 132.555
L99.9544 133.233
L99.0846 133.729
L97.345 134.344
L95.6054 134.647
L92.996 134.827
L86.9074 134.892
L75.6 134.894
L75.6 134.894" style="fill:none;stroke:#008000;stroke-linecap:square;"/>
   </g>
   <g id="line2d_3">
    <path clip-path="url(#paf56127041)" d="
M205.2 134.894
L155.621 134.798
L152.142 134.564
L150.403 134.292
L148.663 133.808
L146.923 132.971
L146.054 132.361
L145.184 131.588
L144.314 130.624
L143.444 129.443
L142.574 128.026
L141.705 126.364
L139.965 122.332
L137.356 115.138
L135.616 110.512
L134.746 108.569
L133.877 107.014
L133.007 105.938
L132.137 105.403
L131.267 105.441
L130.397 106.051
L129.528 107.196
L128.658 108.808
L126.918 113.052
L123.439 122.627
L121.699 126.6
L120.83 128.229
L119.96 129.614
L119.09 130.764
L118.22 131.702
L117.35 132.451
L115.611 133.499
L113.871 134.116
L112.132 134.466
L109.522 134.722
L105.173 134.859
L92.996 134.894
L75.6 134.894
L75.6 134.894" style="fill:none;stroke:#008000;stroke-linecap:square;"/>
   </g>
   <g id="line2d_4">
    <path clip-path="url(#paf56127041)" d="
M205.2 134.894
L185.195 134.806
L180.846 134.609
L177.366 134.226
L174.757 133.697
L173.017 133.174
L171.278 132.478
L169.538 131.577
L167.799 130.449
L166.059 129.089
L163.45 126.652
L156.491 119.648
L154.752 118.419
L153.012 117.632
L152.142 117.425
L151.272 117.348
L150.403 117.402
L149.533 117.582
L147.793 118.293
L146.054 119.403
L144.314 120.806
L140.835 124.039
L137.356 127.21
L134.746 129.257
L132.137 130.925
L129.528 132.212
L126.918 133.155
L124.309 133.814
L121.699 134.253
L118.22 134.596
L113.871 134.793
L106.043 134.884
L75.6 134.894
L75.6 134.894" style="fill:none;stroke:#008000;stroke-linecap:square;"/>
   </g>
   <g id="line2d_5">
    <path clip-path="url(#paf56127041)" d="
M205.2 134.695
L200.851 134.372
L197.372 133.862
L194.762 133.266
L192.153 132.445
L189.544 131.381
L186.934 130.094
L182.585 127.645
L179.106 125.758
L176.497 124.636
L174.757 124.114
L173.017 123.813
L171.278 123.753
L169.538 123.937
L167.799 124.354
L166.059 124.976
L163.45 126.208
L159.101 128.654
L155.621 130.552
L153.012 131.768
L150.403 132.75
L147.793 133.491
L145.184 134.019
L141.705 134.46
L137.356 134.733
L131.267 134.862
L113.871 134.894
L75.6 134.894
L75.6 134.894" style="fill:none;stroke:#008000;stroke-linecap:square;"/>
   </g>
   <g id="line2d_6">
    <path clip-path="url(#paf56127041)" d="
M205.2 134.695
L200.851 134.371
L197.372 133.86
L194.762 133.261
L192.153 132.434
L189.544 131.357
L186.934 130.04
L183.455 128.002
L176.497 123.821
L173.017 122.093
L168.668 120.265
L164.319 118.378
L157.361 115.083
L155.621 114.545
L153.882 114.279
L152.142 114.324
L150.403 114.656
L146.054 115.84
L145.184 115.893
L144.314 115.794
L143.444 115.506
L142.574 114.995
L141.705 114.241
L140.835 113.235
L139.965 111.988
L138.226 108.922
L135.616 103.973
L134.746 102.612
L133.877 101.555
L133.007 100.876
L132.137 100.619
L131.267 100.791
L130.397 101.356
L129.528 102.24
L126.918 105.512
L126.048 106.278
L125.179 106.613
L124.309 106.39
L123.439 105.526
L122.569 103.997
L121.699 101.848
L119.96 96.2283
L118.22 90.3087
L117.35 87.8622
L116.481 85.9873
L114.741 83.394
L113.871 81.4663
L113.001 77.7335
L112.132 71.3518
L110.392 54.6237
L109.522 51.091
L108.652 55.476
L107.783 67.6272
L106.043 99.8431
L105.173 112.444
L104.303 121.041
L103.434 126.351
L102.564 129.472
L101.694 131.313
L100.824 132.452
L99.9544 133.202
L99.0846 133.72
L97.345 134.342
L95.6054 134.646
L92.996 134.826
L86.9074 134.892
L75.6 134.894
L75.6 134.894" style="fill:none;stroke:#ff4500;stroke-dasharray:6.000000,6.000000;stroke-dashoffset:0.0;stroke-width:2;"/>
   </g>
   <g id="patch_3">
    <path d="
M75.6 23.4
L205.2 23.4" style="fill:none;stroke:#000000;stroke-linecap:square;stroke-linejoin:miter;"/>
   </g>
   <g id="patch_4">
    <path d="
M205.2 134.894
L205.2 23.4" style="fill:none;stroke:#000000;stroke-linecap:square;stroke-linejoin:miter;"/>
   </g>
   <g id="patch_5">
    <path d="
M75.6 134.894
L205.2 134.894" style="fill:none;stroke:#000000;stroke-linecap:square;stroke-linejoin:miter;"/>
   </g>
   <g id="patch_6">
    <path d="
M75.6 134.894
L75.6 23.4" style="fill:none;stroke:#000000;stroke-linecap:square;stroke-linejoin:miter;"/>
   </g>
   <g id="matplotlib.axis_1">
    <g id="xtick_1">
     <g id="line2d_7">
      <defs>
       <path d="
M0 0
L0 -4" id="m93b0483c22" style="stroke:#000000;stroke-width:0.5;"/>
      </defs>
      <g>
       <use style="stroke:#000000;stroke-width:0.5;" x="205.2" xlink:href="#m93b0483c22" y="134.894117647"/>
      </g>
     </g>
     <g id="line2d_8">
      <defs>
       <path d="
M0 0
L0 4" id="m741efc42ff" style="stroke:#000000;stroke-width:0.5;"/>
      </defs>
      <g>
       <use style="stroke:#000000;stroke-width:0.5;" x="205.2" xlink:href="#m741efc42ff" y="23.4"/>
      </g>
     </g>
    </g>
    <g id="xtick_2">
     <g id="line2d_9">
      <g>
       <use style="stroke:#000000;stroke-width:0.5;" x="162.0" xlink:href="#m93b0483c22" y="134.894117647"/>
      </g>
     </g>
     <g id="line2d_10">
      <g>
       <use style="stroke:#000000;stroke-width:0.5;" x="162.0" xlink:href="#m741efc42ff" y="23.4"/>
      </g>
     </g>
    </g>
    <g id="xtick_3">
     <g id="line2d_11">
      <g>
       <use style="stroke:#000000;stroke-width:0.5;" x="118.8" xlink:href="#m93b0483c22" y="134.894117647"/>
      </g>
     </g>
     <g id="line2d_12">
      <g>
       <use style="stroke:#000000;stroke-width:0.5;" x="118.8" xlink:href="#m741efc42ff" y="23.4"/>
      </g>
     </g>
    </g>
    <g id="xtick_4">
     <g id="line2d_13">
      <g>
       <use style="stroke:#000000;stroke-width:0.5;" x="75.6" xlink:href="#m93b0483c22" y="134.894117647"/>
      </g>
     </g>
     <g id="line2d_14">
      <g>
       <use style="stroke:#000000;stroke-width:0.5;" x="75.6" xlink:href="#m741efc42ff" y="23.4"/>
      </g>
     </g>
    </g>
   </g>
   <g id="matplotlib.axis_2">
    <g id="ytick_1">
     <g id="line2d_15">
      <defs>
       <path d="
M0 0
L4 0" id="m728421d6d4" style="stroke:#000000;stroke-width:0.5;"/>
      </defs>
      <g>
       <use style="stroke:#000000;stroke-width:0.5;" x="75.6" xlink:href="#m728421d6d4" y="134.894117647"/>
      </g>
     </g>
     <g id="line2d_16">
      <defs>
       <path d="
M0 0
L-4 0" id="mcb0005524f" style="stroke:#000000;stroke-width:0.5;"/>
      </defs>
      <g>
       <use style="stroke:#000000;stroke-width:0.5;" x="205.2" xlink:href="#mcb0005524f" y="134.894117647"/>
      </g>
     </g>
     <g id="text_1">
      <!-- 0.0 -->
      <defs>
       <path d="
M31.7812 66.4062
Q24.1719 66.4062 20.3281 58.9062
Q16.5 51.4219 16.5 36.375
Q16.5 21.3906 20.3281 13.8906
Q24.1719 6.39062 31.7812 6.39062
Q39.4531 6.39062 43.2812 13.8906
Q47.125 21.3906 47.125 36.375
Q47.125 51.4219 43.2812 58.9062
Q39.4531 66.4062 31.7812 66.4062
M31.7812 74.2188
Q44.0469 74.2188 50.5156 64.5156
Q56.9844 54.8281 56.9844 36.375
Q56.9844 17.9688 50.5156 8.26562
Q44.0469 -1.42188 31.7812 -1.42188
Q19.5312 -1.42188 13.0625 8.26562
Q6.59375 17.9688 6.59375 36.375
Q6.59375 54.8281 13.0625 64.5156
Q19.5312 74.2188 31.7812 74.2188" id="BitstreamVeraSans-Roman-30"/>
       <path d="
M10.6875 12.4062
L21 12.4062
L21 0
L10.6875 0
z
" id="BitstreamVeraSans-Roman-2e"/>
      </defs>
      <g transform="translate(57.0203125 137.653492647)scale(0.1 -0.1)">
       <use xlink:href="#BitstreamVeraSans-Roman-30"/>
       <use x="63.623046875" xlink:href="#BitstreamVeraSans-Roman-2e"/>
       <use x="95.41015625" xlink:href="#BitstreamVeraSans-Roman-30"/>
      </g>
     </g>
    </g>
    <g id="ytick_2">
     <g id="line2d_17">
      <g>
       <use style="stroke:#000000;stroke-width:0.5;" x="75.6" xlink:href="#m728421d6d4" y="107.020588235"/>
      </g>
     </g>
     <g id="line2d_18">
      <g>
       <use style="stroke:#000000;stroke-width:0.5;" x="205.2" xlink:href="#mcb0005524f" y="107.020588235"/>
      </g>
     </g>
     <g id="text_2">
      <!-- 0.5 -->
      <defs>
       <path d="
M10.7969 72.9062
L49.5156 72.9062
L49.5156 64.5938
L19.8281 64.5938
L19.8281 46.7344
Q21.9688 47.4688 24.1094 47.8281
Q26.2656 48.1875 28.4219 48.1875
Q40.625 48.1875 47.75 41.5
Q54.8906 34.8125 54.8906 23.3906
Q54.8906 11.625 47.5625 5.09375
Q40.2344 -1.42188 26.9062 -1.42188
Q22.3125 -1.42188 17.5469 -0.640625
Q12.7969 0.140625 7.71875 1.70312
L7.71875 11.625
Q12.1094 9.23438 16.7969 8.0625
Q21.4844 6.89062 26.7031 6.89062
Q35.1562 6.89062 40.0781 11.3281
Q45.0156 15.7656 45.0156 23.3906
Q45.0156 31 40.0781 35.4375
Q35.1562 39.8906 26.7031 39.8906
Q22.75 39.8906 18.8125 39.0156
Q14.8906 38.1406 10.7969 36.2812
z
" id="BitstreamVeraSans-Roman-35"/>
      </defs>
      <g transform="translate(57.2296875 109.779963235)scale(0.1 -0.1)">
       <use xlink:href="#BitstreamVeraSans-Roman-30"/>
       <use x="63.623046875" xlink:href="#BitstreamVeraSans-Roman-2e"/>
       <use x="95.41015625" xlink:href="#BitstreamVeraSans-Roman-35"/>
      </g>
     </g>
    </g>
    <g id="ytick_3">
     <g id="line2d_19">
      <g>
       <use style="stroke:#000000;stroke-width:0.5;" x="75.6" xlink:href="#m728421d6d4" y="79.1470588235"/>
      </g>
     </g>
     <g id="line2d_20">
      <g>
       <use style="stroke:#000000;stroke-width:0.5;" x="205.2" xlink:href="#mcb0005524f" y="79.1470588235"/>
      </g>
     </g>
     <g id="text_3">
      <!-- 1.0 -->
      <defs>
       <path d="
M12.4062 8.29688
L28.5156 8.29688
L28.5156 63.9219
L10.9844 60.4062
L10.9844 69.3906
L28.4219 72.9062
L38.2812 72.9062
L38.2812 8.29688
L54.3906 8.29688
L54.3906 0
L12.4062 0
z
" id="BitstreamVeraSans-Roman-31"/>
      </defs>
      <g transform="translate(57.459375 81.9064338235)scale(0.1 -0.1)">
       <use xlink:href="#BitstreamVeraSans-Roman-31"/>
       <use x="63.623046875" xlink:href="#BitstreamVeraSans-Roman-2e"/>
       <use x="95.41015625" xlink:href="#BitstreamVeraSans-Roman-30"/>
      </g>
     </g>
    </g>
    <g id="ytick_4">
     <g id="line2d_21">
      <g>
       <use style="stroke:#000000;stroke-width:0.5;" x="75.6" xlink:href="#m728421d6d4" y="51.2735294118"/>
      </g>
     </g>
     <g id="line2d_22">
      <g>
       <use style="stroke:#000000;stroke-width:0.5;" x="205.2" xlink:href="#mcb0005524f" y="51.2735294118"/>
      </g>
     </g>
     <g id="text_4">
      <!-- 1.5 -->
      <g transform="translate(57.66875 54.0329044118)scale(0.1 -0.1)">
       <use xlink:href="#BitstreamVeraSans-Roman-31"/>
       <use x="63.623046875" xlink:href="#BitstreamVeraSans-Roman-2e"/>
       <use x="95.41015625" xlink:href="#BitstreamVeraSans-Roman-35"/>
      </g>
     </g>
    </g>
    <g id="ytick_5">
     <g id="line2d_23">
      <g>
       <use style="stroke:#000000;stroke-width:0.5;" x="75.6" xlink:href="#m728421d6d4" y="23.4"/>
      </g>
     </g>
     <g id="line2d_24">
      <g>
       <use style="stroke:#000000;stroke-width:0.5;" x="205.2" xlink:href="#mcb0005524f" y="23.4"/>
      </g>
     </g>
     <g id="text_5">
      <!-- 2.0 -->
      <defs>
       <path d="
M19.1875 8.29688
L53.6094 8.29688
L53.6094 0
L7.32812 0
L7.32812 8.29688
Q12.9375 14.1094 22.625 23.8906
Q32.3281 33.6875 34.8125 36.5312
Q39.5469 41.8438 41.4219 45.5312
Q43.3125 49.2188 43.3125 52.7812
Q43.3125 58.5938 39.2344 62.25
Q35.1562 65.9219 28.6094 65.9219
Q23.9688 65.9219 18.8125 64.3125
Q13.6719 62.7031 7.8125 59.4219
L7.8125 69.3906
Q13.7656 71.7812 18.9375 73
Q24.125 74.2188 28.4219 74.2188
Q39.75 74.2188 46.4844 68.5469
Q53.2188 62.8906 53.2188 53.4219
Q53.2188 48.9219 51.5312 44.8906
Q49.8594 40.875 45.4062 35.4062
Q44.1875 33.9844 37.6406 27.2188
Q31.1094 20.4531 19.1875 8.29688" id="BitstreamVeraSans-Roman-32"/>
      </defs>
      <g transform="translate(57.09375 26.159375)scale(0.1 -0.1)">
       <use xlink:href="#BitstreamVeraSans-Roman-32"/>
       <use x="63.623046875" xlink:href="#BitstreamVeraSans-Roman-2e"/>
       <use x="95.41015625" xlink:href="#BitstreamVeraSans-Roman-30"/>
      </g>
     </g>
    </g>
    <g id="text_6">
     <!-- absorbance (cm$^{-1}$) -->
     <defs>
      <path id="BitstreamVeraSans-Roman-20"/>
      <path d="
M52 44.1875
Q55.375 50.25 60.0625 53.125
Q64.75 56 71.0938 56
Q79.6406 56 84.2812 50.0156
Q88.9219 44.0469 88.9219 33.0156
L88.9219 0
L79.8906 0
L79.8906 32.7188
Q79.8906 40.5781 77.0938 44.375
Q74.3125 48.1875 68.6094 48.1875
Q61.625 48.1875 57.5625 43.5469
Q53.5156 38.9219 53.5156 30.9062
L53.5156 0
L44.4844 0
L44.4844 32.7188
Q44.4844 40.625 41.7031 44.4062
Q38.9219 48.1875 33.1094 48.1875
Q26.2188 48.1875 22.1562 43.5312
Q18.1094 38.875 18.1094 30.9062
L18.1094 0
L9.07812 0
L9.07812 54.6875
L18.1094 54.6875
L18.1094 46.1875
Q21.1875 51.2188 25.4844 53.6094
Q29.7812 56 35.6875 56
Q41.6562 56 45.8281 52.9688
Q50 49.9531 52 44.1875" id="BitstreamVeraSans-Roman-6d"/>
      <path d="
M10.2031 23
Q9.375 23 8.82812 23.625
Q8.29688 24.2656 8.29688 25
Q8.29688 25.7344 8.82812 26.3594
Q9.375 27 10.2031 27
L67.5781 27
Q68.3594 27 68.875 26.3594
Q69.3906 25.7344 69.3906 25
Q69.3906 24.2656 68.875 23.625
Q68.3594 23 67.5781 23
z
" id="Cmsy10-a1"/>
      <path d="
M54.8906 33.0156
L54.8906 0
L45.9062 0
L45.9062 32.7188
Q45.9062 40.4844 42.875 44.3281
Q39.8438 48.1875 33.7969 48.1875
Q26.5156 48.1875 22.3125 43.5469
Q18.1094 38.9219 18.1094 30.9062
L18.1094 0
L9.07812 0
L9.07812 54.6875
L18.1094 54.6875
L18.1094 46.1875
Q21.3438 51.125 25.7031 53.5625
Q30.0781 56 35.7969 56
Q45.2188 56 50.0469 50.1719
Q54.8906 44.3438 54.8906 33.0156" id="BitstreamVeraSans-Roman-6e"/>
      <path d="
M34.2812 27.4844
Q23.3906 27.4844 19.1875 25
Q14.9844 22.5156 14.9844 16.5
Q14.9844 11.7188 18.1406 8.90625
Q21.2969 6.10938 26.7031 6.10938
Q34.1875 6.10938 38.7031 11.4062
Q43.2188 16.7031 43.2188 25.4844
L43.2188 27.4844
z

M52.2031 31.2031
L52.2031 0
L43.2188 0
L43.2188 8.29688
Q40.1406 3.32812 35.5469 0.953125
Q30.9531 -1.42188 24.3125 -1.42188
Q15.9219 -1.42188 10.9531 3.29688
Q6 8.01562 6 15.9219
Q6 25.1406 12.1719 29.8281
Q18.3594 34.5156 30.6094 34.5156
L43.2188 34.5156
L43.2188 35.4062
Q43.2188 41.6094 39.1406 45
Q35.0625 48.3906 27.6875 48.3906
Q23 48.3906 18.5469 47.2656
Q14.1094 46.1406 10.0156 43.8906
L10.0156 52.2031
Q14.9375 54.1094 19.5781 55.0469
Q24.2188 56 28.6094 56
Q40.4844 56 46.3438 49.8438
Q52.2031 43.7031 52.2031 31.2031" id="BitstreamVeraSans-Roman-61"/>
      <path d="
M30.6094 48.3906
Q23.3906 48.3906 19.1875 42.75
Q14.9844 37.1094 14.9844 27.2969
Q14.9844 17.4844 19.1562 11.8438
Q23.3438 6.20312 30.6094 6.20312
Q37.7969 6.20312 41.9844 11.8594
Q46.1875 17.5312 46.1875 27.2969
Q46.1875 37.0156 41.9844 42.7031
Q37.7969 48.3906 30.6094 48.3906
M30.6094 56
Q42.3281 56 49.0156 48.375
Q55.7188 40.7656 55.7188 27.2969
Q55.7188 13.875 49.0156 6.21875
Q42.3281 -1.42188 30.6094 -1.42188
Q18.8438 -1.42188 12.1719 6.21875
Q5.51562 13.875 5.51562 27.2969
Q5.51562 40.7656 12.1719 48.375
Q18.8438 56 30.6094 56" id="BitstreamVeraSans-Roman-6f"/>
      <path d="
M9.28125 0
L9.28125 3.51562
Q21.7812 3.51562 21.7812 6.6875
L21.7812 59.1875
Q16.6094 56.6875 8.6875 56.6875
L8.6875 60.2031
Q20.9531 60.2031 27.2031 66.6094
L28.6094 66.6094
Q28.9531 66.6094 29.2656 66.3281
Q29.5938 66.0625 29.5938 65.7188
L29.5938 6.6875
Q29.5938 3.51562 42.0938 3.51562
L42.0938 0
z
" id="Cmr10-31"/>
      <path d="
M8.01562 75.875
L15.8281 75.875
Q23.1406 64.3594 26.7812 53.3125
Q30.4219 42.2812 30.4219 31.3906
Q30.4219 20.4531 26.7812 9.375
Q23.1406 -1.70312 15.8281 -13.1875
L8.01562 -13.1875
Q14.5 -2 17.7031 9.0625
Q20.9062 20.125 20.9062 31.3906
Q20.9062 42.6719 17.7031 53.6562
Q14.5 64.6562 8.01562 75.875" id="BitstreamVeraSans-Roman-29"/>
      <path d="
M31 75.875
Q24.4688 64.6562 21.2812 53.6562
Q18.1094 42.6719 18.1094 31.3906
Q18.1094 20.125 21.3125 9.0625
Q24.5156 -2 31 -13.1875
L23.1875 -13.1875
Q15.875 -1.70312 12.2344 9.375
Q8.59375 20.4531 8.59375 31.3906
Q8.59375 42.2812 12.2031 53.3125
Q15.8281 64.3594 23.1875 75.875
z
" id="BitstreamVeraSans-Roman-28"/>
      <path d="
M56.2031 29.5938
L56.2031 25.2031
L14.8906 25.2031
Q15.4844 15.9219 20.4844 11.0625
Q25.4844 6.20312 34.4219 6.20312
Q39.5938 6.20312 44.4531 7.46875
Q49.3125 8.73438 54.1094 11.2812
L54.1094 2.78125
Q49.2656 0.734375 44.1875 -0.34375
Q39.1094 -1.42188 33.8906 -1.42188
Q20.7969 -1.42188 13.1562 6.1875
Q5.51562 13.8125 5.51562 26.8125
Q5.51562 40.2344 12.7656 48.1094
Q20.0156 56 32.3281 56
Q43.3594 56 49.7812 48.8906
Q56.2031 41.7969 56.2031 29.5938
M47.2188 32.2344
Q47.125 39.5938 43.0938 43.9844
Q39.0625 48.3906 32.4219 48.3906
Q24.9062 48.3906 20.3906 44.1406
Q15.875 39.8906 15.1875 32.1719
z
" id="BitstreamVeraSans-Roman-65"/>
      <path d="
M41.1094 46.2969
Q39.5938 47.1719 37.8125 47.5781
Q36.0312 48 33.8906 48
Q26.2656 48 22.1875 43.0469
Q18.1094 38.0938 18.1094 28.8125
L18.1094 0
L9.07812 0
L9.07812 54.6875
L18.1094 54.6875
L18.1094 46.1875
Q20.9531 51.1719 25.4844 53.5781
Q30.0312 56 36.5312 56
Q37.4531 56 38.5781 55.875
Q39.7031 55.7656 41.0625 55.5156
z
" id="BitstreamVeraSans-Roman-72"/>
      <path d="
M44.2812 53.0781
L44.2812 44.5781
Q40.4844 46.5312 36.375 47.5
Q32.2812 48.4844 27.875 48.4844
Q21.1875 48.4844 17.8438 46.4375
Q14.5 44.3906 14.5 40.2812
Q14.5 37.1562 16.8906 35.375
Q19.2812 33.5938 26.5156 31.9844
L29.5938 31.2969
Q39.1562 29.25 43.1875 25.5156
Q47.2188 21.7812 47.2188 15.0938
Q47.2188 7.46875 41.1875 3.01562
Q35.1562 -1.42188 24.6094 -1.42188
Q20.2188 -1.42188 15.4531 -0.5625
Q10.6875 0.296875 5.42188 2
L5.42188 11.2812
Q10.4062 8.6875 15.2344 7.39062
Q20.0625 6.10938 24.8125 6.10938
Q31.1562 6.10938 34.5625 8.28125
Q37.9844 10.4531 37.9844 14.4062
Q37.9844 18.0625 35.5156 20.0156
Q33.0625 21.9688 24.7031 23.7812
L21.5781 24.5156
Q13.2344 26.2656 9.51562 29.9062
Q5.8125 33.5469 5.8125 39.8906
Q5.8125 47.6094 11.2812 51.7969
Q16.75 56 26.8125 56
Q31.7812 56 36.1719 55.2656
Q40.5781 54.5469 44.2812 53.0781" id="BitstreamVeraSans-Roman-73"/>
      <path d="
M48.7812 52.5938
L48.7812 44.1875
Q44.9688 46.2969 41.1406 47.3438
Q37.3125 48.3906 33.4062 48.3906
Q24.6562 48.3906 19.8125 42.8438
Q14.9844 37.3125 14.9844 27.2969
Q14.9844 17.2812 19.8125 11.7344
Q24.6562 6.20312 33.4062 6.20312
Q37.3125 6.20312 41.1406 7.25
Q44.9688 8.29688 48.7812 10.4062
L48.7812 2.09375
Q45.0156 0.34375 40.9844 -0.53125
Q36.9688 -1.42188 32.4219 -1.42188
Q20.0625 -1.42188 12.7812 6.34375
Q5.51562 14.1094 5.51562 27.2969
Q5.51562 40.6719 12.8594 48.3281
Q20.2188 56 33.0156 56
Q37.1562 56 41.1094 55.1406
Q45.0625 54.2969 48.7812 52.5938" id="BitstreamVeraSans-Roman-63"/>
      <path d="
M48.6875 27.2969
Q48.6875 37.2031 44.6094 42.8438
Q40.5312 48.4844 33.4062 48.4844
Q26.2656 48.4844 22.1875 42.8438
Q18.1094 37.2031 18.1094 27.2969
Q18.1094 17.3906 22.1875 11.75
Q26.2656 6.10938 33.4062 6.10938
Q40.5312 6.10938 44.6094 11.75
Q48.6875 17.3906 48.6875 27.2969
M18.1094 46.3906
Q20.9531 51.2656 25.2656 53.625
Q29.5938 56 35.5938 56
Q45.5625 56 51.7812 48.0938
Q58.0156 40.1875 58.0156 27.2969
Q58.0156 14.4062 51.7812 6.48438
Q45.5625 -1.42188 35.5938 -1.42188
Q29.5938 -1.42188 25.2656 0.953125
Q20.9531 3.32812 18.1094 8.20312
L18.1094 0
L9.07812 0
L9.07812 75.9844
L18.1094 75.9844
z
" id="BitstreamVeraSans-Roman-62"/>
     </defs>
     <g transform="translate(49.73265625 131.452058824)rotate(-90.0)scale(0.11 -0.11)">
      <use transform="translate(0.0 0.8578125)" xlink:href="#BitstreamVeraSans-Roman-61"/>
      <use transform="translate(61.279296875 0.8578125)" xlink:href="#BitstreamVeraSans-Roman-62"/>
      <use transform="translate(123.005859375 0.8578125)" xlink:href="#BitstreamVeraSans-Roman-73"/>
      <use transform="translate(175.10546875 0.8578125)" xlink:href="#BitstreamVeraSans-Roman-6f"/>
      <use transform="translate(236.287109375 0.8578125)" xlink:href="#BitstreamVeraSans-Roman-72"/>
      <use transform="translate(277.400390625 0.8578125)" xlink:href="#BitstreamVeraSans-Roman-62"/>
      <use transform="translate(340.876953125 0.8578125)" xlink:href="#BitstreamVeraSans-Roman-61"/>
      <use transform="translate(402.15625 0.8578125)" xlink:href="#BitstreamVeraSans-Roman-6e"/>
      <use transform="translate(465.53515625 0.8578125)" xlink:href="#BitstreamVeraSans-Roman-63"/>
      <use transform="translate(520.515625 0.8578125)" xlink:href="#BitstreamVeraSans-Roman-65"/>
      <use transform="translate(582.0390625 0.8578125)" xlink:href="#BitstreamVeraSans-Roman-20"/>
      <use transform="translate(613.826171875 0.8578125)" xlink:href="#BitstreamVeraSans-Roman-28"/>
      <use transform="translate(652.83984375 0.8578125)" xlink:href="#BitstreamVeraSans-Roman-63"/>
      <use transform="translate(707.8203125 0.8578125)" xlink:href="#BitstreamVeraSans-Roman-6d"/>
      <use transform="translate(805.232421875 43.3734375)scale(0.7)" xlink:href="#Cmsy10-a1"/>
      <use transform="translate(859.612304688 43.3734375)scale(0.7)" xlink:href="#Cmr10-31"/>
      <use transform="translate(911.618554688 0.8578125)" xlink:href="#BitstreamVeraSans-Roman-29"/>
     </g>
    </g>
   </g>
  </g>
  <g id="axes_2">
   <g id="patch_7">
    <path d="
M75.6 268.687
L205.2 268.687
L205.2 157.193
L75.6 157.193
z
" style="fill:#ffffff;"/>
   </g>
   <g id="line2d_25">
    <path clip-path="url(#p1d598c964c)" d="
M205.2 268.687
L106.043 268.636
L105.173 267.532
L104.303 258.15
L103.434 229.584
L102.564 209.641
L101.694 232.407
L100.824 259.617
L99.9544 267.764
L99.0846 268.649
L96.4752 268.687
L75.6 268.687
L75.6 268.687" style="fill:none;stroke:#008000;stroke-linecap:square;"/>
   </g>
   <g id="line2d_26">
    <path clip-path="url(#p1d598c964c)" d="
M205.2 268.687
L129.528 268.588
L124.309 268.32
L119.96 267.835
L114.741 266.946
L110.392 266.223
L109.522 266.11
L108.652 265.876
L107.783 264.185
L106.913 257.479
L106.043 249.581
L105.173 253.067
L104.303 261.828
L103.434 265.458
L102.564 266.044
L96.4752 267.032
L91.2564 267.899
L86.9074 268.356
L82.5584 268.576
L75.6 268.675
L75.6 268.675" style="fill:none;stroke:#008000;stroke-linecap:square;"/>
   </g>
   <g id="line2d_27">
    <path clip-path="url(#p1d598c964c)" d="
M205.2 268.687
L116.481 268.623
L115.611 268.484
L114.741 268.131
L113.871 267.364
L113.001 265.924
L112.132 263.435
L111.262 259.151
L109.522 246.787
L108.652 246.727
L106.913 259.059
L106.043 263.381
L105.173 265.892
L104.303 267.346
L103.434 268.122
L102.564 268.48
L100.824 268.669
L92.996 268.687
L75.6 268.687
L75.6 268.687" style="fill:none;stroke:#008000;stroke-linecap:square;"/>
   </g>
   <g id="line2d_28">
    <path clip-path="url(#p1d598c964c)" d="
M205.2 268.687
L134.746 268.589
L133.007 268.434
L131.267 268.084
L130.397 267.783
L129.528 267.36
L128.658 266.78
L127.788 266.002
L126.918 264.988
L126.048 263.699
L125.179 262.105
L124.309 260.192
L122.569 255.45
L118.22 241.79
L117.35 239.782
L116.481 238.347
L115.611 237.582
L114.741 237.542
L113.871 238.229
L113.001 239.594
L112.132 241.545
L110.392 246.665
L107.783 255.158
L106.043 259.962
L105.173 261.911
L104.303 263.539
L103.434 264.86
L102.564 265.903
L101.694 266.704
L100.824 267.305
L99.9544 267.743
L98.2148 268.273
L96.4752 268.52
L92.996 268.666
L80.8188 268.687
L75.6 268.687
L75.6 268.687" style="fill:none;stroke:#008000;stroke-linecap:square;"/>
   </g>
   <g id="line2d_29">
    <path clip-path="url(#p1d598c964c)" d="
M205.2 268.687
L157.361 268.597
L154.752 268.416
L153.012 268.147
L151.272 267.651
L149.533 266.779
L148.663 266.138
L147.793 265.321
L146.923 264.293
L146.054 263.02
L145.184 261.47
L144.314 259.615
L143.444 257.434
L141.705 252.085
L139.965 245.578
L136.486 231.417
L135.616 228.311
L134.746 225.644
L133.877 223.537
L133.007 222.09
L132.137 221.375
L131.267 221.426
L130.397 222.242
L129.528 223.781
L128.658 225.969
L127.788 228.703
L126.048 235.299
L122.569 249.387
L120.83 255.276
L119.09 259.88
L118.22 261.694
L117.35 263.205
L116.481 264.444
L115.611 265.441
L114.741 266.233
L113.871 266.853
L112.132 267.694
L110.392 268.171
L107.783 268.507
L104.303 268.648
L94.7356 268.687
L75.6 268.687
L75.6 268.687" style="fill:none;stroke:#008000;stroke-linecap:square;"/>
   </g>
   <g id="line2d_30">
    <path clip-path="url(#p1d598c964c)" d="
M205.2 268.687
L173.017 268.583
L170.408 268.309
L168.668 267.856
L167.799 267.483
L166.929 266.969
L166.059 266.274
L165.189 265.351
L164.319 264.148
L163.45 262.61
L162.58 260.684
L161.71 258.32
L160.84 255.478
L159.97 252.138
L158.231 243.993
L156.491 234.268
L153.882 218.911
L153.012 214.314
L152.142 210.317
L151.272 207.108
L150.403 204.846
L149.533 203.646
L148.663 203.57
L147.793 204.623
L146.923 206.749
L146.054 209.84
L145.184 213.743
L143.444 223.222
L139.965 243.386
L138.226 251.654
L137.356 255.062
L136.486 257.969
L135.616 260.395
L134.746 262.377
L133.877 263.963
L133.007 265.208
L132.137 266.165
L131.267 266.888
L130.397 267.424
L128.658 268.092
L126.918 268.423
L124.309 268.617
L119.09 268.684
L75.6 268.687
L75.6 268.687" style="fill:none;stroke:#008000;stroke-linecap:square;"/>
   </g>
   <g id="line2d_31">
    <path clip-path="url(#p1d598c964c)" d="
M205.2 268.648
L200.851 268.46
L198.242 268.094
L196.502 267.613
L194.762 266.812
L193.893 266.245
L193.023 265.535
L192.153 264.658
L191.283 263.586
L190.413 262.291
L189.544 260.747
L188.674 258.926
L187.804 256.806
L186.064 251.608
L184.325 245.11
L182.585 237.442
L179.106 220.207
L177.366 211.953
L175.627 205.014
L174.757 202.285
L173.887 200.163
L173.017 198.712
L172.148 197.978
L171.278 197.984
L170.408 198.73
L169.538 200.193
L168.668 202.325
L167.799 205.064
L166.059 212.017
L164.319 220.279
L160.84 237.51
L159.101 245.169
L157.361 251.657
L155.621 256.844
L154.752 258.958
L153.882 260.774
L153.012 262.315
L152.142 263.605
L151.272 264.674
L150.403 265.548
L148.663 266.821
L146.923 267.618
L145.184 268.097
L142.574 268.461
L139.095 268.631
L131.267 268.686
L75.6 268.687
L75.6 268.687" style="fill:none;stroke:#008000;stroke-linecap:square;"/>
   </g>
   <g id="line2d_32">
    <path clip-path="url(#p1d598c964c)" d="
M205.2 268.648
L200.851 268.46
L198.242 268.094
L196.502 267.613
L194.762 266.812
L193.893 266.245
L193.023 265.535
L192.153 264.658
L191.283 263.586
L190.413 262.291
L189.544 260.747
L188.674 258.926
L187.804 256.806
L186.064 251.608
L184.325 245.11
L182.585 237.442
L179.976 224.566
L177.366 211.944
L175.627 204.988
L174.757 202.244
L173.887 200.097
L173.017 198.608
L172.148 197.816
L171.278 197.735
L170.408 198.352
L169.538 199.628
L168.668 201.494
L167.799 203.859
L166.059 209.603
L163.45 218.56
L162.58 221.014
L161.71 222.961
L160.84 224.283
L159.97 224.893
L159.101 224.74
L158.231 223.817
L157.361 222.162
L156.491 219.864
L154.752 213.903
L153.012 207.402
L152.142 204.484
L151.272 202.059
L150.403 200.293
L149.533 199.305
L148.663 199.155
L147.793 199.838
L146.923 201.286
L146.054 203.375
L144.314 208.766
L142.574 214.398
L141.705 216.818
L140.835 218.778
L139.965 220.191
L139.095 221.029
L138.226 221.321
L137.356 221.149
L136.486 220.636
L133.877 218.623
L133.007 218.32
L132.137 218.41
L131.267 218.962
L130.397 219.996
L129.528 221.481
L127.788 225.459
L125.179 231.899
L124.309 233.578
L123.439 234.83
L122.569 235.595
L121.699 235.867
L120.83 235.694
L119.96 235.174
L117.35 233.014
L116.481 232.616
L115.611 232.553
L114.741 232.791
L113.871 233.171
L113.001 233.419
L112.132 233.097
L111.262 231.355
L110.392 227.658
L109.522 224.687
L108.652 227.373
L107.783 234.333
L106.913 236.738
L106.043 235.413
L105.173 242.282
L104.303 244.763
L103.434 221.938
L102.564 203.99
L101.694 227.831
L100.824 255.809
L99.9544 264.543
L99.0846 265.888
L97.345 266.605
L94.7356 267.285
L91.2564 267.893
L87.7772 268.286
L83.4282 268.546
L77.3396 268.665
L75.6 268.675
L75.6 268.675" style="fill:none;stroke:#ff4500;stroke-dasharray:6.000000,6.000000;stroke-dashoffset:0.0;stroke-width:2;"/>
   </g>
   <g id="patch_8">
    <path d="
M75.6 157.193
L205.2 157.193" style="fill:none;stroke:#000000;stroke-linecap:square;stroke-linejoin:miter;"/>
   </g>
   <g id="patch_9">
    <path d="
M205.2 268.687
L205.2 157.193" style="fill:none;stroke:#000000;stroke-linecap:square;stroke-linejoin:miter;"/>
   </g>
   <g id="patch_10">
    <path d="
M75.6 268.687
L205.2 268.687" style="fill:none;stroke:#000000;stroke-linecap:square;stroke-linejoin:miter;"/>
   </g>
   <g id="patch_11">
    <path d="
M75.6 268.687
L75.6 157.193" style="fill:none;stroke:#000000;stroke-linecap:square;stroke-linejoin:miter;"/>
   </g>
   <g id="matplotlib.axis_3">
    <g id="xtick_5">
     <g id="line2d_33">
      <g>
       <use style="stroke:#000000;stroke-width:0.5;" x="205.2" xlink:href="#m93b0483c22" y="268.687058824"/>
      </g>
     </g>
     <g id="line2d_34">
      <g>
       <use style="stroke:#000000;stroke-width:0.5;" x="205.2" xlink:href="#m741efc42ff" y="157.192941176"/>
      </g>
     </g>
    </g>
    <g id="xtick_6">
     <g id="line2d_35">
      <g>
       <use style="stroke:#000000;stroke-width:0.5;" x="162.0" xlink:href="#m93b0483c22" y="268.687058824"/>
      </g>
     </g>
     <g id="line2d_36">
      <g>
       <use style="stroke:#000000;stroke-width:0.5;" x="162.0" xlink:href="#m741efc42ff" y="157.192941176"/>
      </g>
     </g>
    </g>
    <g id="xtick_7">
     <g id="line2d_37">
      <g>
       <use style="stroke:#000000;stroke-width:0.5;" x="118.8" xlink:href="#m93b0483c22" y="268.687058824"/>
      </g>
     </g>
     <g id="line2d_38">
      <g>
       <use style="stroke:#000000;stroke-width:0.5;" x="118.8" xlink:href="#m741efc42ff" y="157.192941176"/>
      </g>
     </g>
    </g>
    <g id="xtick_8">
     <g id="line2d_39">
      <g>
       <use style="stroke:#000000;stroke-width:0.5;" x="75.6" xlink:href="#m93b0483c22" y="268.687058824"/>
      </g>
     </g>
     <g id="line2d_40">
      <g>
       <use style="stroke:#000000;stroke-width:0.5;" x="75.6" xlink:href="#m741efc42ff" y="157.192941176"/>
      </g>
     </g>
    </g>
   </g>
   <g id="matplotlib.axis_4">
    <g id="ytick_6">
     <g id="line2d_41">
      <g>
       <use style="stroke:#000000;stroke-width:0.5;" x="75.6" xlink:href="#m728421d6d4" y="268.687058824"/>
      </g>
     </g>
     <g id="line2d_42">
      <g>
       <use style="stroke:#000000;stroke-width:0.5;" x="205.2" xlink:href="#mcb0005524f" y="268.687058824"/>
      </g>
     </g>
     <g id="text_7">
      <!-- 0.0 -->
      <g transform="translate(57.0203125 271.446433824)scale(0.1 -0.1)">
       <use xlink:href="#BitstreamVeraSans-Roman-30"/>
       <use x="63.623046875" xlink:href="#BitstreamVeraSans-Roman-2e"/>
       <use x="95.41015625" xlink:href="#BitstreamVeraSans-Roman-30"/>
      </g>
     </g>
    </g>
    <g id="ytick_7">
     <g id="line2d_43">
      <g>
       <use style="stroke:#000000;stroke-width:0.5;" x="75.6" xlink:href="#m728421d6d4" y="240.813529412"/>
      </g>
     </g>
     <g id="line2d_44">
      <g>
       <use style="stroke:#000000;stroke-width:0.5;" x="205.2" xlink:href="#mcb0005524f" y="240.813529412"/>
      </g>
     </g>
     <g id="text_8">
      <!-- 0.5 -->
      <g transform="translate(57.2296875 243.572904412)scale(0.1 -0.1)">
       <use xlink:href="#BitstreamVeraSans-Roman-30"/>
       <use x="63.623046875" xlink:href="#BitstreamVeraSans-Roman-2e"/>
       <use x="95.41015625" xlink:href="#BitstreamVeraSans-Roman-35"/>
      </g>
     </g>
    </g>
    <g id="ytick_8">
     <g id="line2d_45">
      <g>
       <use style="stroke:#000000;stroke-width:0.5;" x="75.6" xlink:href="#m728421d6d4" y="212.94"/>
      </g>
     </g>
     <g id="line2d_46">
      <g>
       <use style="stroke:#000000;stroke-width:0.5;" x="205.2" xlink:href="#mcb0005524f" y="212.94"/>
      </g>
     </g>
     <g id="text_9">
      <!-- 1.0 -->
      <g transform="translate(57.459375 215.699375)scale(0.1 -0.1)">
       <use xlink:href="#BitstreamVeraSans-Roman-31"/>
       <use x="63.623046875" xlink:href="#BitstreamVeraSans-Roman-2e"/>
       <use x="95.41015625" xlink:href="#BitstreamVeraSans-Roman-30"/>
      </g>
     </g>
    </g>
    <g id="ytick_9">
     <g id="line2d_47">
      <g>
       <use style="stroke:#000000;stroke-width:0.5;" x="75.6" xlink:href="#m728421d6d4" y="185.066470588"/>
      </g>
     </g>
     <g id="line2d_48">
      <g>
       <use style="stroke:#000000;stroke-width:0.5;" x="205.2" xlink:href="#mcb0005524f" y="185.066470588"/>
      </g>
     </g>
     <g id="text_10">
      <!-- 1.5 -->
      <g transform="translate(57.66875 187.825845588)scale(0.1 -0.1)">
       <use xlink:href="#BitstreamVeraSans-Roman-31"/>
       <use x="63.623046875" xlink:href="#BitstreamVeraSans-Roman-2e"/>
       <use x="95.41015625" xlink:href="#BitstreamVeraSans-Roman-35"/>
      </g>
     </g>
    </g>
    <g id="ytick_10">
     <g id="line2d_49">
      <g>
       <use style="stroke:#000000;stroke-width:0.5;" x="75.6" xlink:href="#m728421d6d4" y="157.192941176"/>
      </g>
     </g>
     <g id="line2d_50">
      <g>
       <use style="stroke:#000000;stroke-width:0.5;" x="205.2" xlink:href="#mcb0005524f" y="157.192941176"/>
      </g>
     </g>
     <g id="text_11">
      <!-- 2.0 -->
      <g transform="translate(57.09375 159.952316176)scale(0.1 -0.1)">
       <use xlink:href="#BitstreamVeraSans-Roman-32"/>
       <use x="63.623046875" xlink:href="#BitstreamVeraSans-Roman-2e"/>
       <use x="95.41015625" xlink:href="#BitstreamVeraSans-Roman-30"/>
      </g>
     </g>
    </g>
    <g id="text_12">
     <!-- absorbance (cm$^{-1}$) -->
     <g transform="translate(49.73265625 265.245)rotate(-90.0)scale(0.11 -0.11)">
      <use transform="translate(0.0 0.8578125)" xlink:href="#BitstreamVeraSans-Roman-61"/>
      <use transform="translate(61.279296875 0.8578125)" xlink:href="#BitstreamVeraSans-Roman-62"/>
      <use transform="translate(123.005859375 0.8578125)" xlink:href="#BitstreamVeraSans-Roman-73"/>
      <use transform="translate(175.10546875 0.8578125)" xlink:href="#BitstreamVeraSans-Roman-6f"/>
      <use transform="translate(236.287109375 0.8578125)" xlink:href="#BitstreamVeraSans-Roman-72"/>
      <use transform="translate(277.400390625 0.8578125)" xlink:href="#BitstreamVeraSans-Roman-62"/>
      <use transform="translate(340.876953125 0.8578125)" xlink:href="#BitstreamVeraSans-Roman-61"/>
      <use transform="translate(402.15625 0.8578125)" xlink:href="#BitstreamVeraSans-Roman-6e"/>
      <use transform="translate(465.53515625 0.8578125)" xlink:href="#BitstreamVeraSans-Roman-63"/>
      <use transform="translate(520.515625 0.8578125)" xlink:href="#BitstreamVeraSans-Roman-65"/>
      <use transform="translate(582.0390625 0.8578125)" xlink:href="#BitstreamVeraSans-Roman-20"/>
      <use transform="translate(613.826171875 0.8578125)" xlink:href="#BitstreamVeraSans-Roman-28"/>
      <use transform="translate(652.83984375 0.8578125)" xlink:href="#BitstreamVeraSans-Roman-63"/>
      <use transform="translate(707.8203125 0.8578125)" xlink:href="#BitstreamVeraSans-Roman-6d"/>
      <use transform="translate(805.232421875 43.3734375)scale(0.7)" xlink:href="#Cmsy10-a1"/>
      <use transform="translate(859.612304688 43.3734375)scale(0.7)" xlink:href="#Cmr10-31"/>
      <use transform="translate(911.618554688 0.8578125)" xlink:href="#BitstreamVeraSans-Roman-29"/>
     </g>
    </g>
   </g>
  </g>
  <g id="axes_3">
   <g id="patch_12">
    <path d="
M75.6 402.48
L205.2 402.48
L205.2 290.986
L75.6 290.986
z
" style="fill:#ffffff;"/>
   </g>
   <g id="line2d_51">
    <path clip-path="url(#pab0fd7cc9e)" d="
M205.2 402.48
L139.095 402.4
L136.486 402.176
L134.746 401.792
L133.877 401.469
L133.007 401.015
L132.137 400.391
L131.267 399.547
L130.397 398.425
L129.528 396.963
L128.658 395.093
L127.788 392.748
L126.918 389.869
L126.048 386.407
L125.179 382.336
L123.439 372.416
L121.699 360.606
L119.09 342.145
L118.22 336.711
L117.35 332.06
L116.481 328.42
L115.611 325.979
L114.741 324.869
L113.871 325.148
L113.001 326.802
L112.132 329.741
L111.262 333.811
L110.392 338.805
L108.652 350.582
L106.043 369.031
L104.303 379.601
L103.434 384.038
L102.564 387.864
L101.694 391.088
L100.824 393.747
L99.9544 395.894
L99.0846 397.593
L98.2148 398.911
L97.345 399.914
L96.4752 400.664
L95.6054 401.215
L93.8658 401.893
L92.1262 402.223
L89.5168 402.414
L84.298 402.477
L75.6 402.48
L75.6 402.48" style="fill:none;stroke:#008000;stroke-linecap:square;"/>
   </g>
   <g id="line2d_52">
    <path clip-path="url(#pab0fd7cc9e)" d="
M205.2 402.48
L153.012 402.383
L150.403 402.158
L148.663 401.815
L146.923 401.181
L146.054 400.703
L145.184 400.082
L144.314 399.29
L143.444 398.295
L142.574 397.07
L141.705 395.587
L140.835 393.827
L139.095 389.456
L137.356 384.075
L133.877 372.387
L133.007 369.894
L132.137 367.817
L131.267 366.265
L130.397 365.321
L129.528 365.039
L128.658 365.434
L127.788 366.483
L126.918 368.13
L126.048 370.284
L124.309 375.658
L120.83 387.319
L119.09 392.143
L118.22 394.141
L117.35 395.853
L116.481 397.291
L115.611 398.476
L114.741 399.435
L113.871 400.197
L113.001 400.792
L111.262 401.595
L109.522 402.042
L106.913 402.343
L102.564 402.465
L84.298 402.48
L75.6 402.48
L75.6 402.48" style="fill:none;stroke:#008000;stroke-linecap:square;"/>
   </g>
   <g id="line2d_53">
    <path clip-path="url(#pab0fd7cc9e)" d="
M205.2 402.48
L184.325 402.372
L179.976 402.117
L177.366 401.764
L175.627 401.375
L173.887 400.8
L172.148 399.97
L170.408 398.793
L168.668 397.169
L166.929 394.989
L165.189 392.157
L163.45 388.611
L161.71 384.353
L159.97 379.48
L154.752 363.843
L153.012 359.652
L152.142 358.001
L151.272 356.711
L150.403 355.819
L149.533 355.352
L148.663 355.322
L147.793 355.732
L146.923 356.568
L146.054 357.807
L145.184 359.412
L143.444 363.533
L141.705 368.499
L137.356 381.657
L135.616 386.282
L133.877 390.237
L132.137 393.47
L130.397 396.009
L128.658 397.935
L126.918 399.352
L125.179 400.366
L123.439 401.076
L121.699 401.563
L119.09 402.009
L115.611 402.297
L110.392 402.441
L96.4752 402.48
L75.6 402.48
L75.6 402.48" style="fill:none;stroke:#008000;stroke-linecap:square;"/>
   </g>
   <g id="line2d_54">
    <path clip-path="url(#pab0fd7cc9e)" d="
M205.2 401.746
L201.721 401.177
L199.111 400.547
L196.502 399.706
L193.893 398.628
L191.283 397.312
L187.804 395.238
L179.976 390.252
L177.366 388.959
L175.627 388.32
L173.887 387.899
L172.148 387.715
L170.408 387.778
L168.668 388.084
L166.929 388.62
L165.189 389.357
L162.58 390.761
L159.101 392.969
L153.882 396.323
L151.272 397.784
L148.663 399.021
L146.054 400.017
L143.444 400.783
L140.835 401.348
L137.356 401.851
L133.007 402.2
L126.918 402.401
L115.611 402.475
L75.6 402.48
L75.6 402.48" style="fill:none;stroke:#008000;stroke-linecap:square;"/>
   </g>
   <g id="line2d_55">
    <path clip-path="url(#pab0fd7cc9e)" d="
M205.2 401.746
L201.721 401.176
L199.111 400.547
L196.502 399.704
L193.893 398.623
L191.283 397.3
L188.674 395.756
L184.325 392.852
L179.106 389.326
L175.627 387.215
L170.408 384.091
L168.668 382.774
L166.929 381.129
L165.189 379.034
L163.45 376.391
L161.71 373.161
L159.97 369.396
L153.882 355.396
L153.012 353.907
L152.142 352.694
L151.272 351.796
L150.403 351.24
L149.533 351.041
L148.663 351.198
L147.793 351.695
L146.923 352.5
L146.054 353.565
L144.314 356.216
L142.574 359.031
L141.705 360.287
L140.835 361.337
L139.965 362.113
L139.095 362.566
L138.226 362.671
L137.356 362.425
L136.486 361.854
L135.616 361.01
L133.877 358.801
L132.137 356.482
L130.397 354.629
L128.658 353.386
L126.918 352.311
L126.048 351.568
L125.179 350.523
L124.309 349.067
L123.439 347.125
L122.569 344.671
L120.83 338.424
L118.22 327.987
L117.35 325.128
L116.481 322.991
L115.611 321.787
L114.741 321.676
L113.871 322.75
L113.001 325.024
L112.132 328.441
L111.262 332.873
L109.522 344.011
L105.173 374.511
L103.434 384.01
L102.564 387.846
L101.694 391.077
L100.824 393.74
L99.9544 395.89
L99.0846 397.59
L98.2148 398.909
L97.345 399.913
L96.4752 400.664
L95.6054 401.214
L93.8658 401.893
L92.1262 402.223
L89.5168 402.414
L84.298 402.477
L75.6 402.48
L75.6 402.48" style="fill:none;stroke:#ff4500;stroke-dasharray:6.000000,6.000000;stroke-dashoffset:0.0;stroke-width:2;"/>
   </g>
   <g id="patch_13">
    <path d="
M75.6 290.986
L205.2 290.986" style="fill:none;stroke:#000000;stroke-linecap:square;stroke-linejoin:miter;"/>
   </g>
   <g id="patch_14">
    <path d="
M205.2 402.48
L205.2 290.986" style="fill:none;stroke:#000000;stroke-linecap:square;stroke-linejoin:miter;"/>
   </g>
   <g id="patch_15">
    <path d="
M75.6 402.48
L205.2 402.48" style="fill:none;stroke:#000000;stroke-linecap:square;stroke-linejoin:miter;"/>
   </g>
   <g id="patch_16">
    <path d="
M75.6 402.48
L75.6 290.986" style="fill:none;stroke:#000000;stroke-linecap:square;stroke-linejoin:miter;"/>
   </g>
   <g id="matplotlib.axis_5">
    <g id="xtick_9">
     <g id="line2d_56">
      <g>
       <use style="stroke:#000000;stroke-width:0.5;" x="205.2" xlink:href="#m93b0483c22" y="402.48"/>
      </g>
     </g>
     <g id="line2d_57">
      <g>
       <use style="stroke:#000000;stroke-width:0.5;" x="205.2" xlink:href="#m741efc42ff" y="290.985882353"/>
      </g>
     </g>
     <g id="text_13">
      <!-- 3200 -->
      <defs>
       <path d="
M40.5781 39.3125
Q47.6562 37.7969 51.625 33
Q55.6094 28.2188 55.6094 21.1875
Q55.6094 10.4062 48.1875 4.48438
Q40.7656 -1.42188 27.0938 -1.42188
Q22.5156 -1.42188 17.6562 -0.515625
Q12.7969 0.390625 7.625 2.20312
L7.625 11.7188
Q11.7188 9.32812 16.5938 8.10938
Q21.4844 6.89062 26.8125 6.89062
Q36.0781 6.89062 40.9375 10.5469
Q45.7969 14.2031 45.7969 21.1875
Q45.7969 27.6406 41.2812 31.2656
Q36.7656 34.9062 28.7188 34.9062
L20.2188 34.9062
L20.2188 43.0156
L29.1094 43.0156
Q36.375 43.0156 40.2344 45.9219
Q44.0938 48.8281 44.0938 54.2969
Q44.0938 59.9062 40.1094 62.9062
Q36.1406 65.9219 28.7188 65.9219
Q24.6562 65.9219 20.0156 65.0312
Q15.375 64.1562 9.8125 62.3125
L9.8125 71.0938
Q15.4375 72.6562 20.3438 73.4375
Q25.25 74.2188 29.5938 74.2188
Q40.8281 74.2188 47.3594 69.1094
Q53.9062 64.0156 53.9062 55.3281
Q53.9062 49.2656 50.4375 45.0938
Q46.9688 40.9219 40.5781 39.3125" id="BitstreamVeraSans-Roman-33"/>
      </defs>
      <g transform="translate(198.657604993 428.840042246)rotate(-45.0)scale(0.1 -0.1)">
       <use xlink:href="#BitstreamVeraSans-Roman-33"/>
       <use x="63.623046875" xlink:href="#BitstreamVeraSans-Roman-32"/>
       <use x="127.24609375" xlink:href="#BitstreamVeraSans-Roman-30"/>
       <use x="190.869140625" xlink:href="#BitstreamVeraSans-Roman-30"/>
      </g>
     </g>
    </g>
    <g id="xtick_10">
     <g id="line2d_58">
      <g>
       <use style="stroke:#000000;stroke-width:0.5;" x="162.0" xlink:href="#m93b0483c22" y="402.48"/>
      </g>
     </g>
     <g id="line2d_59">
      <g>
       <use style="stroke:#000000;stroke-width:0.5;" x="162.0" xlink:href="#m741efc42ff" y="290.985882353"/>
      </g>
     </g>
     <g id="text_14">
      <!-- 3400 -->
      <defs>
       <path d="
M37.7969 64.3125
L12.8906 25.3906
L37.7969 25.3906
z

M35.2031 72.9062
L47.6094 72.9062
L47.6094 25.3906
L58.0156 25.3906
L58.0156 17.1875
L47.6094 17.1875
L47.6094 0
L37.7969 0
L37.7969 17.1875
L4.89062 17.1875
L4.89062 26.7031
z
" id="BitstreamVeraSans-Roman-34"/>
      </defs>
      <g transform="translate(155.457604993 428.840042246)rotate(-45.0)scale(0.1 -0.1)">
       <use xlink:href="#BitstreamVeraSans-Roman-33"/>
       <use x="63.623046875" xlink:href="#BitstreamVeraSans-Roman-34"/>
       <use x="127.24609375" xlink:href="#BitstreamVeraSans-Roman-30"/>
       <use x="190.869140625" xlink:href="#BitstreamVeraSans-Roman-30"/>
      </g>
     </g>
    </g>
    <g id="xtick_11">
     <g id="line2d_60">
      <g>
       <use style="stroke:#000000;stroke-width:0.5;" x="118.8" xlink:href="#m93b0483c22" y="402.48"/>
      </g>
     </g>
     <g id="line2d_61">
      <g>
       <use style="stroke:#000000;stroke-width:0.5;" x="118.8" xlink:href="#m741efc42ff" y="290.985882353"/>
      </g>
     </g>
     <g id="text_15">
      <!-- 3600 -->
      <defs>
       <path d="
M33.0156 40.375
Q26.375 40.375 22.4844 35.8281
Q18.6094 31.2969 18.6094 23.3906
Q18.6094 15.5312 22.4844 10.9531
Q26.375 6.39062 33.0156 6.39062
Q39.6562 6.39062 43.5312 10.9531
Q47.4062 15.5312 47.4062 23.3906
Q47.4062 31.2969 43.5312 35.8281
Q39.6562 40.375 33.0156 40.375
M52.5938 71.2969
L52.5938 62.3125
Q48.875 64.0625 45.0938 64.9844
Q41.3125 65.9219 37.5938 65.9219
Q27.8281 65.9219 22.6719 59.3281
Q17.5312 52.7344 16.7969 39.4062
Q19.6719 43.6562 24.0156 45.9219
Q28.375 48.1875 33.5938 48.1875
Q44.5781 48.1875 50.9531 41.5156
Q57.3281 34.8594 57.3281 23.3906
Q57.3281 12.1562 50.6875 5.35938
Q44.0469 -1.42188 33.0156 -1.42188
Q20.3594 -1.42188 13.6719 8.26562
Q6.98438 17.9688 6.98438 36.375
Q6.98438 53.6562 15.1875 63.9375
Q23.3906 74.2188 37.2031 74.2188
Q40.9219 74.2188 44.7031 73.4844
Q48.4844 72.75 52.5938 71.2969" id="BitstreamVeraSans-Roman-36"/>
      </defs>
      <g transform="translate(112.257604993 428.840042246)rotate(-45.0)scale(0.1 -0.1)">
       <use xlink:href="#BitstreamVeraSans-Roman-33"/>
       <use x="63.623046875" xlink:href="#BitstreamVeraSans-Roman-36"/>
       <use x="127.24609375" xlink:href="#BitstreamVeraSans-Roman-30"/>
       <use x="190.869140625" xlink:href="#BitstreamVeraSans-Roman-30"/>
      </g>
     </g>
    </g>
    <g id="xtick_12">
     <g id="line2d_62">
      <g>
       <use style="stroke:#000000;stroke-width:0.5;" x="75.6" xlink:href="#m93b0483c22" y="402.48"/>
      </g>
     </g>
     <g id="line2d_63">
      <g>
       <use style="stroke:#000000;stroke-width:0.5;" x="75.6" xlink:href="#m741efc42ff" y="290.985882353"/>
      </g>
     </g>
     <g id="text_16">
      <!-- 3800 -->
      <defs>
       <path d="
M31.7812 34.625
Q24.75 34.625 20.7188 30.8594
Q16.7031 27.0938 16.7031 20.5156
Q16.7031 13.9219 20.7188 10.1562
Q24.75 6.39062 31.7812 6.39062
Q38.8125 6.39062 42.8594 10.1719
Q46.9219 13.9688 46.9219 20.5156
Q46.9219 27.0938 42.8906 30.8594
Q38.875 34.625 31.7812 34.625
M21.9219 38.8125
Q15.5781 40.375 12.0312 44.7188
Q8.5 49.0781 8.5 55.3281
Q8.5 64.0625 14.7188 69.1406
Q20.9531 74.2188 31.7812 74.2188
Q42.6719 74.2188 48.875 69.1406
Q55.0781 64.0625 55.0781 55.3281
Q55.0781 49.0781 51.5312 44.7188
Q48 40.375 41.7031 38.8125
Q48.8281 37.1562 52.7969 32.3125
Q56.7812 27.4844 56.7812 20.5156
Q56.7812 9.90625 50.3125 4.23438
Q43.8438 -1.42188 31.7812 -1.42188
Q19.7344 -1.42188 13.25 4.23438
Q6.78125 9.90625 6.78125 20.5156
Q6.78125 27.4844 10.7812 32.3125
Q14.7969 37.1562 21.9219 38.8125
M18.3125 54.3906
Q18.3125 48.7344 21.8438 45.5625
Q25.3906 42.3906 31.7812 42.3906
Q38.1406 42.3906 41.7188 45.5625
Q45.3125 48.7344 45.3125 54.3906
Q45.3125 60.0625 41.7188 63.2344
Q38.1406 66.4062 31.7812 66.4062
Q25.3906 66.4062 21.8438 63.2344
Q18.3125 60.0625 18.3125 54.3906" id="BitstreamVeraSans-Roman-38"/>
      </defs>
      <g transform="translate(69.0576049925 428.840042246)rotate(-45.0)scale(0.1 -0.1)">
       <use xlink:href="#BitstreamVeraSans-Roman-33"/>
       <use x="63.623046875" xlink:href="#BitstreamVeraSans-Roman-38"/>
       <use x="127.24609375" xlink:href="#BitstreamVeraSans-Roman-30"/>
       <use x="190.869140625" xlink:href="#BitstreamVeraSans-Roman-30"/>
      </g>
     </g>
    </g>
    <g id="text_17">
     <!-- Wavenumber (cm$^{-1}$) -->
     <defs>
      <path d="
M2.98438 54.6875
L12.5 54.6875
L29.5938 8.79688
L46.6875 54.6875
L56.2031 54.6875
L35.6875 0
L23.4844 0
z
" id="BitstreamVeraSans-Roman-76"/>
      <path d="
M8.5 21.5781
L8.5 54.6875
L17.4844 54.6875
L17.4844 21.9219
Q17.4844 14.1562 20.5 10.2656
Q23.5312 6.39062 29.5938 6.39062
Q36.8594 6.39062 41.0781 11.0312
Q45.3125 15.6719 45.3125 23.6875
L45.3125 54.6875
L54.2969 54.6875
L54.2969 0
L45.3125 0
L45.3125 8.40625
Q42.0469 3.42188 37.7188 1
Q33.4062 -1.42188 27.6875 -1.42188
Q18.2656 -1.42188 13.375 4.4375
Q8.5 10.2969 8.5 21.5781" id="BitstreamVeraSans-Roman-75"/>
      <path d="
M3.32812 72.9062
L13.2812 72.9062
L28.6094 11.2812
L43.8906 72.9062
L54.9844 72.9062
L70.3125 11.2812
L85.5938 72.9062
L95.6094 72.9062
L77.2969 0
L64.8906 0
L49.5156 63.2812
L33.9844 0
L21.5781 0
z
" id="BitstreamVeraSans-Roman-57"/>
     </defs>
     <g transform="translate(83.2 444.46294713)scale(0.11 -0.11)">
      <use transform="translate(0.0 0.8578125)" xlink:href="#BitstreamVeraSans-Roman-57"/>
      <use transform="translate(98.876953125 0.8578125)" xlink:href="#BitstreamVeraSans-Roman-61"/>
      <use transform="translate(160.15625 0.8578125)" xlink:href="#BitstreamVeraSans-Roman-76"/>
      <use transform="translate(219.3359375 0.8578125)" xlink:href="#BitstreamVeraSans-Roman-65"/>
      <use transform="translate(280.859375 0.8578125)" xlink:href="#BitstreamVeraSans-Roman-6e"/>
      <use transform="translate(344.23828125 0.8578125)" xlink:href="#BitstreamVeraSans-Roman-75"/>
      <use transform="translate(407.6171875 0.8578125)" xlink:href="#BitstreamVeraSans-Roman-6d"/>
      <use transform="translate(505.029296875 0.8578125)" xlink:href="#BitstreamVeraSans-Roman-62"/>
      <use transform="translate(568.505859375 0.8578125)" xlink:href="#BitstreamVeraSans-Roman-65"/>
      <use transform="translate(630.029296875 0.8578125)" xlink:href="#BitstreamVeraSans-Roman-72"/>
      <use transform="translate(671.142578125 0.8578125)" xlink:href="#BitstreamVeraSans-Roman-20"/>
      <use transform="translate(702.9296875 0.8578125)" xlink:href="#BitstreamVeraSans-Roman-28"/>
      <use transform="translate(741.943359375 0.8578125)" xlink:href="#BitstreamVeraSans-Roman-63"/>
      <use transform="translate(796.923828125 0.8578125)" xlink:href="#BitstreamVeraSans-Roman-6d"/>
      <use transform="translate(894.3359375 43.3734375)scale(0.7)" xlink:href="#Cmsy10-a1"/>
      <use transform="translate(948.715820312 43.3734375)scale(0.7)" xlink:href="#Cmr10-31"/>
      <use transform="translate(1000.72207031 0.8578125)" xlink:href="#BitstreamVeraSans-Roman-29"/>
     </g>
    </g>
   </g>
   <g id="matplotlib.axis_6">
    <g id="ytick_11">
     <g id="line2d_64">
      <g>
       <use style="stroke:#000000;stroke-width:0.5;" x="75.6" xlink:href="#m728421d6d4" y="402.48"/>
      </g>
     </g>
     <g id="line2d_65">
      <g>
       <use style="stroke:#000000;stroke-width:0.5;" x="205.2" xlink:href="#mcb0005524f" y="402.48"/>
      </g>
     </g>
     <g id="text_18">
      <!-- 0.0 -->
      <g transform="translate(57.0203125 405.239375)scale(0.1 -0.1)">
       <use xlink:href="#BitstreamVeraSans-Roman-30"/>
       <use x="63.623046875" xlink:href="#BitstreamVeraSans-Roman-2e"/>
       <use x="95.41015625" xlink:href="#BitstreamVeraSans-Roman-30"/>
      </g>
     </g>
    </g>
    <g id="ytick_12">
     <g id="line2d_66">
      <g>
       <use style="stroke:#000000;stroke-width:0.5;" x="75.6" xlink:href="#m728421d6d4" y="374.606470588"/>
      </g>
     </g>
     <g id="line2d_67">
      <g>
       <use style="stroke:#000000;stroke-width:0.5;" x="205.2" xlink:href="#mcb0005524f" y="374.606470588"/>
      </g>
     </g>
     <g id="text_19">
      <!-- 0.5 -->
      <g transform="translate(57.2296875 377.365845588)scale(0.1 -0.1)">
       <use xlink:href="#BitstreamVeraSans-Roman-30"/>
       <use x="63.623046875" xlink:href="#BitstreamVeraSans-Roman-2e"/>
       <use x="95.41015625" xlink:href="#BitstreamVeraSans-Roman-35"/>
      </g>
     </g>
    </g>
    <g id="ytick_13">
     <g id="line2d_68">
      <g>
       <use style="stroke:#000000;stroke-width:0.5;" x="75.6" xlink:href="#m728421d6d4" y="346.732941176"/>
      </g>
     </g>
     <g id="line2d_69">
      <g>
       <use style="stroke:#000000;stroke-width:0.5;" x="205.2" xlink:href="#mcb0005524f" y="346.732941176"/>
      </g>
     </g>
     <g id="text_20">
      <!-- 1.0 -->
      <g transform="translate(57.459375 349.492316176)scale(0.1 -0.1)">
       <use xlink:href="#BitstreamVeraSans-Roman-31"/>
       <use x="63.623046875" xlink:href="#BitstreamVeraSans-Roman-2e"/>
       <use x="95.41015625" xlink:href="#BitstreamVeraSans-Roman-30"/>
      </g>
     </g>
    </g>
    <g id="ytick_14">
     <g id="line2d_70">
      <g>
       <use style="stroke:#000000;stroke-width:0.5;" x="75.6" xlink:href="#m728421d6d4" y="318.859411765"/>
      </g>
     </g>
     <g id="line2d_71">
      <g>
       <use style="stroke:#000000;stroke-width:0.5;" x="205.2" xlink:href="#mcb0005524f" y="318.859411765"/>
      </g>
     </g>
     <g id="text_21">
      <!-- 1.5 -->
      <g transform="translate(57.66875 321.618786765)scale(0.1 -0.1)">
       <use xlink:href="#BitstreamVeraSans-Roman-31"/>
       <use x="63.623046875" xlink:href="#BitstreamVeraSans-Roman-2e"/>
       <use x="95.41015625" xlink:href="#BitstreamVeraSans-Roman-35"/>
      </g>
     </g>
    </g>
    <g id="ytick_15">
     <g id="line2d_72">
      <g>
       <use style="stroke:#000000;stroke-width:0.5;" x="75.6" xlink:href="#m728421d6d4" y="290.985882353"/>
      </g>
     </g>
     <g id="line2d_73">
      <g>
       <use style="stroke:#000000;stroke-width:0.5;" x="205.2" xlink:href="#mcb0005524f" y="290.985882353"/>
      </g>
     </g>
     <g id="text_22">
      <!-- 2.0 -->
      <g transform="translate(57.09375 293.745257353)scale(0.1 -0.1)">
       <use xlink:href="#BitstreamVeraSans-Roman-32"/>
       <use x="63.623046875" xlink:href="#BitstreamVeraSans-Roman-2e"/>
       <use x="95.41015625" xlink:href="#BitstreamVeraSans-Roman-30"/>
      </g>
     </g>
    </g>
    <g id="text_23">
     <!-- absorbance / 6 (cm$^{-1}$) -->
     <defs>
      <path d="
M25.3906 72.9062
L33.6875 72.9062
L8.29688 -9.28125
L0 -9.28125
z
" id="BitstreamVeraSans-Roman-2f"/>
     </defs>
     <g transform="translate(49.73265625 407.892941176)rotate(-90.0)scale(0.11 -0.11)">
      <use transform="translate(0.0 0.8578125)" xlink:href="#BitstreamVeraSans-Roman-61"/>
      <use transform="translate(61.279296875 0.8578125)" xlink:href="#BitstreamVeraSans-Roman-62"/>
      <use transform="translate(123.005859375 0.8578125)" xlink:href="#BitstreamVeraSans-Roman-73"/>
      <use transform="translate(175.10546875 0.8578125)" xlink:href="#BitstreamVeraSans-Roman-6f"/>
      <use transform="translate(236.287109375 0.8578125)" xlink:href="#BitstreamVeraSans-Roman-72"/>
      <use transform="translate(277.400390625 0.8578125)" xlink:href="#BitstreamVeraSans-Roman-62"/>
      <use transform="translate(340.876953125 0.8578125)" xlink:href="#BitstreamVeraSans-Roman-61"/>
      <use transform="translate(402.15625 0.8578125)" xlink:href="#BitstreamVeraSans-Roman-6e"/>
      <use transform="translate(465.53515625 0.8578125)" xlink:href="#BitstreamVeraSans-Roman-63"/>
      <use transform="translate(520.515625 0.8578125)" xlink:href="#BitstreamVeraSans-Roman-65"/>
      <use transform="translate(582.0390625 0.8578125)" xlink:href="#BitstreamVeraSans-Roman-20"/>
      <use transform="translate(613.826171875 0.8578125)" xlink:href="#BitstreamVeraSans-Roman-2f"/>
      <use transform="translate(647.517578125 0.8578125)" xlink:href="#BitstreamVeraSans-Roman-20"/>
      <use transform="translate(679.3046875 0.8578125)" xlink:href="#BitstreamVeraSans-Roman-36"/>
      <use transform="translate(742.927734375 0.8578125)" xlink:href="#BitstreamVeraSans-Roman-20"/>
      <use transform="translate(774.71484375 0.8578125)" xlink:href="#BitstreamVeraSans-Roman-28"/>
      <use transform="translate(813.728515625 0.8578125)" xlink:href="#BitstreamVeraSans-Roman-63"/>
      <use transform="translate(868.708984375 0.8578125)" xlink:href="#BitstreamVeraSans-Roman-6d"/>
      <use transform="translate(966.12109375 43.3734375)scale(0.7)" xlink:href="#Cmsy10-a1"/>
      <use transform="translate(1020.50097656 43.3734375)scale(0.7)" xlink:href="#Cmr10-31"/>
      <use transform="translate(1072.50722656 0.8578125)" xlink:href="#BitstreamVeraSans-Roman-29"/>
     </g>
    </g>
   </g>
  </g>
 </g>
 <defs>
  <clipPath id="p1d598c964c">
   <rect height="111.494117647" width="129.6" x="75.6" y="157.192941176"/>
  </clipPath>
  <clipPath id="paf56127041">
   <rect height="111.494117647" width="129.6" x="75.6" y="23.4"/>
  </clipPath>
  <clipPath id="pab0fd7cc9e">
   <rect height="111.494117647" width="129.6" x="75.6" y="290.985882353"/>
  </clipPath>
 </defs>
</svg>
