<?xml version="1.0" encoding="utf-8" standalone="no"?>
<!DOCTYPE svg PUBLIC "-//W3C//DTD SVG 1.1//EN"
  "http://www.w3.org/Graphics/SVG/1.1/DTD/svg11.dtd">
<!-- Created with matplotlib (http://matplotlib.org/) -->
<svg height="237pt" version="1.1" viewBox="0 0 432 237" width="432pt" xmlns="http://www.w3.org/2000/svg" xmlns:xlink="http://www.w3.org/1999/xlink">
 <defs>
  <style type="text/css">
*{stroke-linecap:butt;stroke-linejoin:round;stroke-miterlimit:100000;}
  </style>
 </defs>
 <g id="figure_1">
  <g id="patch_1">
   <path d="M 0 237.6 
L 432 237.6 
L 432 0 
L 0 0 
z
" style="fill:#ffffff;"/>
  </g>
  <g id="axes_1">
   <g id="patch_2">
    <path d="M 54 207.9 
L 388.8 207.9 
L 388.8 23.76 
L 54 23.76 
z
" style="fill:#ffffff;"/>
   </g>
   <g id="patch_3">
    <path clip-path="url(#p311398ba3e)" d="M 54 86.893714 
L 54 60.588 
L 388.8 60.588 
L 388.8 86.893714 
z
" style="fill:#98fb98;stroke:#000000;stroke-linejoin:miter;"/>
   </g>
   <g id="patch_4">
    <path clip-path="url(#p311398ba3e)" d="M 54 186.855429 
L 54 134.244 
L 388.8 134.244 
L 388.8 186.855429 
z
" style="fill:#f0e68c;stroke:#000000;stroke-linejoin:miter;"/>
   </g>
   <g id="LineCollection_1">
    <path clip-path="url(#p311398ba3e)" d="M 81.9 171.072 
L 81.9 157.919143 
" style="fill:none;stroke:#000000;stroke-width:2.0;"/>
    <path clip-path="url(#p311398ba3e)" d="M 137.7 181.594286 
L 137.7 155.288571 
" style="fill:none;stroke:#000000;stroke-width:2.0;"/>
    <path clip-path="url(#p311398ba3e)" d="M 193.5 163.180286 
L 193.5 142.135714 
" style="fill:none;stroke:#000000;stroke-width:2.0;"/>
    <path clip-path="url(#p311398ba3e)" d="M 249.3 143.451 
L 249.3 135.559286 
" style="fill:none;stroke:#000000;stroke-width:2.0;"/>
    <path clip-path="url(#p311398ba3e)" d="M 305.1 178.963714 
L 305.1 157.919143 
" style="fill:none;stroke:#000000;stroke-width:2.0;"/>
    <path clip-path="url(#p311398ba3e)" d="M 360.9 168.441429 
L 360.9 155.288571 
" style="fill:none;stroke:#000000;stroke-width:2.0;"/>
   </g>
   <g id="LineCollection_2">
    <path clip-path="url(#p311398ba3e)" d="M 81.9 84.263143 
L 81.9 63.218571 
" style="fill:none;stroke:#ff0000;stroke-width:2.0;"/>
    <path clip-path="url(#p311398ba3e)" d="M 137.7 84.263143 
L 137.7 68.479714 
" style="fill:none;stroke:#ff0000;stroke-width:2.0;"/>
    <path clip-path="url(#p311398ba3e)" d="M 193.5 76.371429 
L 193.5 60.588 
" style="fill:none;stroke:#ff0000;stroke-width:2.0;"/>
    <path clip-path="url(#p311398ba3e)" d="M 249.3 68.479714 
L 249.3 63.218571 
" style="fill:none;stroke:#ff0000;stroke-width:2.0;"/>
    <path clip-path="url(#p311398ba3e)" d="M 305.1 76.371429 
L 305.1 65.849143 
" style="fill:none;stroke:#ff0000;stroke-width:2.0;"/>
    <path clip-path="url(#p311398ba3e)" d="M 360.9 81.632571 
L 360.9 68.479714 
" style="fill:none;stroke:#ff0000;stroke-width:2.0;"/>
   </g>
   <g id="LineCollection_3">
    <path clip-path="url(#p311398ba3e)" d="M 81.9 172.387286 
L 81.9 156.603857 
" style="fill:none;stroke:#000000;stroke-width:2.0;"/>
    <path clip-path="url(#p311398ba3e)" d="M 137.7 184.224857 
L 137.7 157.919143 
" style="fill:none;stroke:#000000;stroke-width:2.0;"/>
    <path clip-path="url(#p311398ba3e)" d="M 193.5 168.441429 
L 193.5 144.766286 
" style="fill:none;stroke:#000000;stroke-width:2.0;"/>
    <path clip-path="url(#p311398ba3e)" d="M 249.3 148.712143 
L 249.3 140.820429 
" style="fill:none;stroke:#000000;stroke-width:2.0;"/>
    <path clip-path="url(#p311398ba3e)" d="M 305.1 173.702571 
L 305.1 157.919143 
" style="fill:none;stroke:#000000;stroke-width:2.0;"/>
    <path clip-path="url(#p311398ba3e)" d="M 360.9 168.441429 
L 360.9 155.288571 
" style="fill:none;stroke:#000000;stroke-width:2.0;"/>
   </g>
   <g id="line2d_1">
    <defs>
     <path d="M 3 0 
L -3 -0 
" id="ma8af7f3655" style="stroke:#000000;"/>
    </defs>
    <g clip-path="url(#p311398ba3e)">
     <use style="stroke:#000000;" x="81.9" xlink:href="#ma8af7f3655" y="171.072"/>
     <use style="stroke:#000000;" x="137.7" xlink:href="#ma8af7f3655" y="181.594285714"/>
     <use style="stroke:#000000;" x="193.5" xlink:href="#ma8af7f3655" y="163.180285714"/>
     <use style="stroke:#000000;" x="249.3" xlink:href="#ma8af7f3655" y="143.451"/>
     <use style="stroke:#000000;" x="305.1" xlink:href="#ma8af7f3655" y="178.963714286"/>
     <use style="stroke:#000000;" x="360.9" xlink:href="#ma8af7f3655" y="168.441428571"/>
    </g>
   </g>
   <g id="line2d_2">
    <g clip-path="url(#p311398ba3e)">
     <use style="stroke:#000000;" x="81.9" xlink:href="#ma8af7f3655" y="157.919142857"/>
     <use style="stroke:#000000;" x="137.7" xlink:href="#ma8af7f3655" y="155.288571429"/>
     <use style="stroke:#000000;" x="193.5" xlink:href="#ma8af7f3655" y="142.135714286"/>
     <use style="stroke:#000000;" x="249.3" xlink:href="#ma8af7f3655" y="135.559285714"/>
     <use style="stroke:#000000;" x="305.1" xlink:href="#ma8af7f3655" y="157.919142857"/>
     <use style="stroke:#000000;" x="360.9" xlink:href="#ma8af7f3655" y="155.288571429"/>
    </g>
   </g>
   <g id="line2d_3">
    <defs>
     <path d="M 0 2.5 
C 0.663008 2.5 1.29895 2.236584 1.767767 1.767767 
C 2.236584 1.29895 2.5 0.663008 2.5 0 
C 2.5 -0.663008 2.236584 -1.29895 1.767767 -1.767767 
C 1.29895 -2.236584 0.663008 -2.5 0 -2.5 
C -0.663008 -2.5 -1.29895 -2.236584 -1.767767 -1.767767 
C -2.236584 -1.29895 -2.5 -0.663008 -2.5 0 
C -2.5 0.663008 -2.236584 1.29895 -1.767767 1.767767 
C -1.29895 2.236584 -0.663008 2.5 0 2.5 
z
" id="m18626653ed" style="stroke:#000000;"/>
    </defs>
    <g clip-path="url(#p311398ba3e)">
     <use style="fill:none;stroke:#000000;" x="81.9" xlink:href="#m18626653ed" y="164.495571429"/>
     <use style="fill:none;stroke:#000000;" x="137.7" xlink:href="#m18626653ed" y="168.441428571"/>
     <use style="fill:none;stroke:#000000;" x="193.5" xlink:href="#m18626653ed" y="152.658"/>
     <use style="fill:none;stroke:#000000;" x="249.3" xlink:href="#m18626653ed" y="139.505142857"/>
     <use style="fill:none;stroke:#000000;" x="305.1" xlink:href="#m18626653ed" y="168.441428571"/>
     <use style="fill:none;stroke:#000000;" x="360.9" xlink:href="#m18626653ed" y="161.865"/>
    </g>
   </g>
   <g id="line2d_4">
    <defs>
     <path d="M 3 0 
L -3 -0 
" id="mecd259c4ef" style="stroke:#ff0000;"/>
    </defs>
    <g clip-path="url(#p311398ba3e)">
     <use style="fill:#ff0000;stroke:#ff0000;" x="81.9" xlink:href="#mecd259c4ef" y="84.2631428571"/>
     <use style="fill:#ff0000;stroke:#ff0000;" x="137.7" xlink:href="#mecd259c4ef" y="84.2631428571"/>
     <use style="fill:#ff0000;stroke:#ff0000;" x="193.5" xlink:href="#mecd259c4ef" y="76.3714285714"/>
     <use style="fill:#ff0000;stroke:#ff0000;" x="249.3" xlink:href="#mecd259c4ef" y="68.4797142857"/>
     <use style="fill:#ff0000;stroke:#ff0000;" x="305.1" xlink:href="#mecd259c4ef" y="76.3714285714"/>
     <use style="fill:#ff0000;stroke:#ff0000;" x="360.9" xlink:href="#mecd259c4ef" y="81.6325714286"/>
    </g>
   </g>
   <g id="line2d_5">
    <g clip-path="url(#p311398ba3e)">
     <use style="fill:#ff0000;stroke:#ff0000;" x="81.9" xlink:href="#mecd259c4ef" y="63.2185714286"/>
     <use style="fill:#ff0000;stroke:#ff0000;" x="137.7" xlink:href="#mecd259c4ef" y="68.4797142857"/>
     <use style="fill:#ff0000;stroke:#ff0000;" x="193.5" xlink:href="#mecd259c4ef" y="60.588"/>
     <use style="fill:#ff0000;stroke:#ff0000;" x="249.3" xlink:href="#mecd259c4ef" y="63.2185714286"/>
     <use style="fill:#ff0000;stroke:#ff0000;" x="305.1" xlink:href="#mecd259c4ef" y="65.8491428571"/>
     <use style="fill:#ff0000;stroke:#ff0000;" x="360.9" xlink:href="#mecd259c4ef" y="68.4797142857"/>
    </g>
   </g>
   <g id="line2d_6">
    <defs>
     <path d="M -3.5 3.5 
L 3.5 3.5 
L 3.5 -3.5 
L -3.5 -3.5 
z
" id="mee48596a27" style="stroke:#ff0000;stroke-linejoin:miter;"/>
    </defs>
    <g clip-path="url(#p311398ba3e)">
     <use style="fill:none;stroke:#ff0000;stroke-linejoin:miter;" x="81.9" xlink:href="#mee48596a27" y="73.7408571429"/>
     <use style="fill:none;stroke:#ff0000;stroke-linejoin:miter;" x="137.7" xlink:href="#mee48596a27" y="76.3714285714"/>
     <use style="fill:none;stroke:#ff0000;stroke-linejoin:miter;" x="193.5" xlink:href="#mee48596a27" y="68.4797142857"/>
     <use style="fill:none;stroke:#ff0000;stroke-linejoin:miter;" x="249.3" xlink:href="#mee48596a27" y="65.8491428571"/>
     <use style="fill:none;stroke:#ff0000;stroke-linejoin:miter;" x="305.1" xlink:href="#mee48596a27" y="71.1102857143"/>
     <use style="fill:none;stroke:#ff0000;stroke-linejoin:miter;" x="360.9" xlink:href="#mee48596a27" y="75.0561428571"/>
    </g>
   </g>
   <g id="line2d_7">
    <defs>
     <path d="M -6 6 
L 6 6 
L 6 -6 
L -6 -6 
z
" id="mf5c24464af" style="stroke:#000000;stroke-linejoin:miter;stroke-width:0.5;"/>
    </defs>
    <g clip-path="url(#p311398ba3e)">
     <use style="fill:#0000ff;opacity:0.4;stroke:#000000;stroke-linejoin:miter;stroke-width:0.5;" x="81.9" xlink:href="#mf5c24464af" y="79.461048143"/>
    </g>
   </g>
   <g id="line2d_8">
    <g clip-path="url(#p311398ba3e)">
     <use style="stroke:#000000;" x="81.9" xlink:href="#ma8af7f3655" y="172.387285714"/>
     <use style="stroke:#000000;" x="137.7" xlink:href="#ma8af7f3655" y="184.224857143"/>
     <use style="stroke:#000000;" x="193.5" xlink:href="#ma8af7f3655" y="168.441428571"/>
     <use style="stroke:#000000;" x="249.3" xlink:href="#ma8af7f3655" y="148.712142857"/>
     <use style="stroke:#000000;" x="305.1" xlink:href="#ma8af7f3655" y="173.702571429"/>
     <use style="stroke:#000000;" x="360.9" xlink:href="#ma8af7f3655" y="168.441428571"/>
    </g>
   </g>
   <g id="line2d_9">
    <g clip-path="url(#p311398ba3e)">
     <use style="stroke:#000000;" x="81.9" xlink:href="#ma8af7f3655" y="156.603857143"/>
     <use style="stroke:#000000;" x="137.7" xlink:href="#ma8af7f3655" y="157.919142857"/>
     <use style="stroke:#000000;" x="193.5" xlink:href="#ma8af7f3655" y="144.766285714"/>
     <use style="stroke:#000000;" x="249.3" xlink:href="#ma8af7f3655" y="140.820428571"/>
     <use style="stroke:#000000;" x="305.1" xlink:href="#ma8af7f3655" y="157.919142857"/>
     <use style="stroke:#000000;" x="360.9" xlink:href="#ma8af7f3655" y="155.288571429"/>
    </g>
   </g>
   <g id="line2d_10">
    <g clip-path="url(#p311398ba3e)">
     <use style="fill:none;stroke:#000000;" x="81.9" xlink:href="#m18626653ed" y="164.495571429"/>
     <use style="fill:none;stroke:#000000;" x="137.7" xlink:href="#m18626653ed" y="171.072"/>
     <use style="fill:none;stroke:#000000;" x="193.5" xlink:href="#m18626653ed" y="156.603857143"/>
     <use style="fill:none;stroke:#000000;" x="249.3" xlink:href="#m18626653ed" y="144.766285714"/>
     <use style="fill:none;stroke:#000000;" x="305.1" xlink:href="#m18626653ed" y="165.810857143"/>
     <use style="fill:none;stroke:#000000;" x="360.9" xlink:href="#m18626653ed" y="161.865"/>
    </g>
   </g>
   <g id="line2d_11">
    <path clip-path="url(#p311398ba3e)" d="M 109.8 207.9 
L 109.8 23.76 
" style="fill:none;stroke:#000000;stroke-linecap:square;stroke-width:2.0;"/>
   </g>
   <g id="line2d_12">
    <path clip-path="url(#p311398ba3e)" d="M 165.6 207.9 
L 165.6 23.76 
" style="fill:none;stroke:#000000;stroke-linecap:square;stroke-width:2.0;"/>
   </g>
   <g id="line2d_13">
    <path clip-path="url(#p311398ba3e)" d="M 221.4 207.9 
L 221.4 23.76 
" style="fill:none;stroke:#000000;stroke-linecap:square;stroke-width:2.0;"/>
   </g>
   <g id="line2d_14">
    <path clip-path="url(#p311398ba3e)" d="M 277.2 207.9 
L 277.2 23.76 
" style="fill:none;stroke:#000000;stroke-linecap:square;stroke-width:2.0;"/>
   </g>
   <g id="line2d_15">
    <path clip-path="url(#p311398ba3e)" d="M 333 207.9 
L 333 23.76 
" style="fill:none;stroke:#000000;stroke-linecap:square;stroke-width:2.0;"/>
   </g>
   <g id="patch_5">
    <path d="M 54 23.76 
L 388.8 23.76 
" style="fill:none;stroke:#000000;stroke-linecap:square;stroke-linejoin:miter;"/>
   </g>
   <g id="patch_6">
    <path d="M 388.8 207.9 
L 388.8 23.76 
" style="fill:none;stroke:#000000;stroke-linecap:square;stroke-linejoin:miter;"/>
   </g>
   <g id="patch_7">
    <path d="M 54 207.9 
L 388.8 207.9 
" style="fill:none;stroke:#000000;stroke-linecap:square;stroke-linejoin:miter;"/>
   </g>
   <g id="patch_8">
    <path d="M 54 207.9 
L 54 23.76 
" style="fill:none;stroke:#000000;stroke-linecap:square;stroke-linejoin:miter;"/>
   </g>
   <g id="matplotlib.axis_1"/>
   <g id="matplotlib.axis_2">
    <g id="ytick_1">
     <g id="line2d_16">
      <defs>
       <path d="M 0 0 
L 4 0 
" id="m5e4858eaf9" style="stroke:#000000;stroke-width:0.5;"/>
      </defs>
      <g>
       <use style="stroke:#000000;stroke-width:0.5;" x="54.0" xlink:href="#m5e4858eaf9" y="207.9"/>
      </g>
     </g>
     <g id="line2d_17">
      <defs>
       <path d="M 0 0 
L -4 0 
" id="md2d7252345" style="stroke:#000000;stroke-width:0.5;"/>
      </defs>
      <g>
       <use style="stroke:#000000;stroke-width:0.5;" x="388.8" xlink:href="#md2d7252345" y="207.9"/>
      </g>
     </g>
     <g id="text_1">
      <!-- −15 -->
      <defs>
       <path d="M 10.59375 35.5 
L 73.1875 35.5 
L 73.1875 27.203125 
L 10.59375 27.203125 
z
" id="BitstreamVeraSans-Roman-2212"/>
       <path d="M 12.40625 8.296875 
L 28.515625 8.296875 
L 28.515625 63.921875 
L 10.984375 60.40625 
L 10.984375 69.390625 
L 28.421875 72.90625 
L 38.28125 72.90625 
L 38.28125 8.296875 
L 54.390625 8.296875 
L 54.390625 0 
L 12.40625 0 
z
" id="BitstreamVeraSans-Roman-31"/>
       <path d="M 10.796875 72.90625 
L 49.515625 72.90625 
L 49.515625 64.59375 
L 19.828125 64.59375 
L 19.828125 46.734375 
Q 21.96875 47.46875 24.109375 47.828125 
Q 26.265625 48.1875 28.421875 48.1875 
Q 40.625 48.1875 47.75 41.5 
Q 54.890625 34.8125 54.890625 23.390625 
Q 54.890625 11.625 47.5625 5.09375 
Q 40.234375 -1.421875 26.90625 -1.421875 
Q 22.3125 -1.421875 17.546875 -0.640625 
Q 12.796875 0.140625 7.71875 1.703125 
L 7.71875 11.625 
Q 12.109375 9.234375 16.796875 8.0625 
Q 21.484375 6.890625 26.703125 6.890625 
Q 35.15625 6.890625 40.078125 11.328125 
Q 45.015625 15.765625 45.015625 23.390625 
Q 45.015625 31 40.078125 35.4375 
Q 35.15625 39.890625 26.703125 39.890625 
Q 22.75 39.890625 18.8125 39.015625 
Q 14.890625 38.140625 10.796875 36.28125 
z
" id="BitstreamVeraSans-Roman-35"/>
      </defs>
      <g transform="translate(28.8953125 210.659375)scale(0.1 -0.1)">
       <use xlink:href="#BitstreamVeraSans-Roman-2212"/>
       <use x="83.7890625" xlink:href="#BitstreamVeraSans-Roman-31"/>
       <use x="147.412109375" xlink:href="#BitstreamVeraSans-Roman-35"/>
      </g>
     </g>
    </g>
    <g id="ytick_2">
     <g id="line2d_18">
      <g>
       <use style="stroke:#000000;stroke-width:0.5;" x="54.0" xlink:href="#m5e4858eaf9" y="181.594285714"/>
      </g>
     </g>
     <g id="line2d_19">
      <g>
       <use style="stroke:#000000;stroke-width:0.5;" x="388.8" xlink:href="#md2d7252345" y="181.594285714"/>
      </g>
     </g>
     <g id="text_2">
      <!-- −14 -->
      <defs>
       <path d="M 37.796875 64.3125 
L 12.890625 25.390625 
L 37.796875 25.390625 
z
M 35.203125 72.90625 
L 47.609375 72.90625 
L 47.609375 25.390625 
L 58.015625 25.390625 
L 58.015625 17.1875 
L 47.609375 17.1875 
L 47.609375 0 
L 37.796875 0 
L 37.796875 17.1875 
L 4.890625 17.1875 
L 4.890625 26.703125 
z
" id="BitstreamVeraSans-Roman-34"/>
      </defs>
      <g transform="translate(28.8953125 184.353660714)scale(0.1 -0.1)">
       <use xlink:href="#BitstreamVeraSans-Roman-2212"/>
       <use x="83.7890625" xlink:href="#BitstreamVeraSans-Roman-31"/>
       <use x="147.412109375" xlink:href="#BitstreamVeraSans-Roman-34"/>
      </g>
     </g>
    </g>
    <g id="ytick_3">
     <g id="line2d_20">
      <g>
       <use style="stroke:#000000;stroke-width:0.5;" x="54.0" xlink:href="#m5e4858eaf9" y="155.288571429"/>
      </g>
     </g>
     <g id="line2d_21">
      <g>
       <use style="stroke:#000000;stroke-width:0.5;" x="388.8" xlink:href="#md2d7252345" y="155.288571429"/>
      </g>
     </g>
     <g id="text_3">
      <!-- −13 -->
      <defs>
       <path d="M 40.578125 39.3125 
Q 47.65625 37.796875 51.625 33 
Q 55.609375 28.21875 55.609375 21.1875 
Q 55.609375 10.40625 48.1875 4.484375 
Q 40.765625 -1.421875 27.09375 -1.421875 
Q 22.515625 -1.421875 17.65625 -0.515625 
Q 12.796875 0.390625 7.625 2.203125 
L 7.625 11.71875 
Q 11.71875 9.328125 16.59375 8.109375 
Q 21.484375 6.890625 26.8125 6.890625 
Q 36.078125 6.890625 40.9375 10.546875 
Q 45.796875 14.203125 45.796875 21.1875 
Q 45.796875 27.640625 41.28125 31.265625 
Q 36.765625 34.90625 28.71875 34.90625 
L 20.21875 34.90625 
L 20.21875 43.015625 
L 29.109375 43.015625 
Q 36.375 43.015625 40.234375 45.921875 
Q 44.09375 48.828125 44.09375 54.296875 
Q 44.09375 59.90625 40.109375 62.90625 
Q 36.140625 65.921875 28.71875 65.921875 
Q 24.65625 65.921875 20.015625 65.03125 
Q 15.375 64.15625 9.8125 62.3125 
L 9.8125 71.09375 
Q 15.4375 72.65625 20.34375 73.4375 
Q 25.25 74.21875 29.59375 74.21875 
Q 40.828125 74.21875 47.359375 69.109375 
Q 53.90625 64.015625 53.90625 55.328125 
Q 53.90625 49.265625 50.4375 45.09375 
Q 46.96875 40.921875 40.578125 39.3125 
" id="BitstreamVeraSans-Roman-33"/>
      </defs>
      <g transform="translate(28.8953125 158.047946429)scale(0.1 -0.1)">
       <use xlink:href="#BitstreamVeraSans-Roman-2212"/>
       <use x="83.7890625" xlink:href="#BitstreamVeraSans-Roman-31"/>
       <use x="147.412109375" xlink:href="#BitstreamVeraSans-Roman-33"/>
      </g>
     </g>
    </g>
    <g id="ytick_4">
     <g id="line2d_22">
      <g>
       <use style="stroke:#000000;stroke-width:0.5;" x="54.0" xlink:href="#m5e4858eaf9" y="128.982857143"/>
      </g>
     </g>
     <g id="line2d_23">
      <g>
       <use style="stroke:#000000;stroke-width:0.5;" x="388.8" xlink:href="#md2d7252345" y="128.982857143"/>
      </g>
     </g>
     <g id="text_4">
      <!-- −12 -->
      <defs>
       <path d="M 19.1875 8.296875 
L 53.609375 8.296875 
L 53.609375 0 
L 7.328125 0 
L 7.328125 8.296875 
Q 12.9375 14.109375 22.625 23.890625 
Q 32.328125 33.6875 34.8125 36.53125 
Q 39.546875 41.84375 41.421875 45.53125 
Q 43.3125 49.21875 43.3125 52.78125 
Q 43.3125 58.59375 39.234375 62.25 
Q 35.15625 65.921875 28.609375 65.921875 
Q 23.96875 65.921875 18.8125 64.3125 
Q 13.671875 62.703125 7.8125 59.421875 
L 7.8125 69.390625 
Q 13.765625 71.78125 18.9375 73 
Q 24.125 74.21875 28.421875 74.21875 
Q 39.75 74.21875 46.484375 68.546875 
Q 53.21875 62.890625 53.21875 53.421875 
Q 53.21875 48.921875 51.53125 44.890625 
Q 49.859375 40.875 45.40625 35.40625 
Q 44.1875 33.984375 37.640625 27.21875 
Q 31.109375 20.453125 19.1875 8.296875 
" id="BitstreamVeraSans-Roman-32"/>
      </defs>
      <g transform="translate(28.8953125 131.742232143)scale(0.1 -0.1)">
       <use xlink:href="#BitstreamVeraSans-Roman-2212"/>
       <use x="83.7890625" xlink:href="#BitstreamVeraSans-Roman-31"/>
       <use x="147.412109375" xlink:href="#BitstreamVeraSans-Roman-32"/>
      </g>
     </g>
    </g>
    <g id="ytick_5">
     <g id="line2d_24">
      <g>
       <use style="stroke:#000000;stroke-width:0.5;" x="54.0" xlink:href="#m5e4858eaf9" y="102.677142857"/>
      </g>
     </g>
     <g id="line2d_25">
      <g>
       <use style="stroke:#000000;stroke-width:0.5;" x="388.8" xlink:href="#md2d7252345" y="102.677142857"/>
      </g>
     </g>
     <g id="text_5">
      <!-- −11 -->
      <g transform="translate(28.8953125 105.436517857)scale(0.1 -0.1)">
       <use xlink:href="#BitstreamVeraSans-Roman-2212"/>
       <use x="83.7890625" xlink:href="#BitstreamVeraSans-Roman-31"/>
       <use x="147.412109375" xlink:href="#BitstreamVeraSans-Roman-31"/>
      </g>
     </g>
    </g>
    <g id="ytick_6">
     <g id="line2d_26">
      <g>
       <use style="stroke:#000000;stroke-width:0.5;" x="54.0" xlink:href="#m5e4858eaf9" y="76.3714285714"/>
      </g>
     </g>
     <g id="line2d_27">
      <g>
       <use style="stroke:#000000;stroke-width:0.5;" x="388.8" xlink:href="#md2d7252345" y="76.3714285714"/>
      </g>
     </g>
     <g id="text_6">
      <!-- −10 -->
      <defs>
       <path d="M 31.78125 66.40625 
Q 24.171875 66.40625 20.328125 58.90625 
Q 16.5 51.421875 16.5 36.375 
Q 16.5 21.390625 20.328125 13.890625 
Q 24.171875 6.390625 31.78125 6.390625 
Q 39.453125 6.390625 43.28125 13.890625 
Q 47.125 21.390625 47.125 36.375 
Q 47.125 51.421875 43.28125 58.90625 
Q 39.453125 66.40625 31.78125 66.40625 
M 31.78125 74.21875 
Q 44.046875 74.21875 50.515625 64.515625 
Q 56.984375 54.828125 56.984375 36.375 
Q 56.984375 17.96875 50.515625 8.265625 
Q 44.046875 -1.421875 31.78125 -1.421875 
Q 19.53125 -1.421875 13.0625 8.265625 
Q 6.59375 17.96875 6.59375 36.375 
Q 6.59375 54.828125 13.0625 64.515625 
Q 19.53125 74.21875 31.78125 74.21875 
" id="BitstreamVeraSans-Roman-30"/>
      </defs>
      <g transform="translate(28.8953125 79.1308035714)scale(0.1 -0.1)">
       <use xlink:href="#BitstreamVeraSans-Roman-2212"/>
       <use x="83.7890625" xlink:href="#BitstreamVeraSans-Roman-31"/>
       <use x="147.412109375" xlink:href="#BitstreamVeraSans-Roman-30"/>
      </g>
     </g>
    </g>
    <g id="ytick_7">
     <g id="line2d_28">
      <g>
       <use style="stroke:#000000;stroke-width:0.5;" x="54.0" xlink:href="#m5e4858eaf9" y="50.0657142857"/>
      </g>
     </g>
     <g id="line2d_29">
      <g>
       <use style="stroke:#000000;stroke-width:0.5;" x="388.8" xlink:href="#md2d7252345" y="50.0657142857"/>
      </g>
     </g>
     <g id="text_7">
      <!-- −9 -->
      <defs>
       <path d="M 10.984375 1.515625 
L 10.984375 10.5 
Q 14.703125 8.734375 18.5 7.8125 
Q 22.3125 6.890625 25.984375 6.890625 
Q 35.75 6.890625 40.890625 13.453125 
Q 46.046875 20.015625 46.78125 33.40625 
Q 43.953125 29.203125 39.59375 26.953125 
Q 35.25 24.703125 29.984375 24.703125 
Q 19.046875 24.703125 12.671875 31.3125 
Q 6.296875 37.9375 6.296875 49.421875 
Q 6.296875 60.640625 12.9375 67.421875 
Q 19.578125 74.21875 30.609375 74.21875 
Q 43.265625 74.21875 49.921875 64.515625 
Q 56.59375 54.828125 56.59375 36.375 
Q 56.59375 19.140625 48.40625 8.859375 
Q 40.234375 -1.421875 26.421875 -1.421875 
Q 22.703125 -1.421875 18.890625 -0.6875 
Q 15.09375 0.046875 10.984375 1.515625 
M 30.609375 32.421875 
Q 37.25 32.421875 41.125 36.953125 
Q 45.015625 41.5 45.015625 49.421875 
Q 45.015625 57.28125 41.125 61.84375 
Q 37.25 66.40625 30.609375 66.40625 
Q 23.96875 66.40625 20.09375 61.84375 
Q 16.21875 57.28125 16.21875 49.421875 
Q 16.21875 41.5 20.09375 36.953125 
Q 23.96875 32.421875 30.609375 32.421875 
" id="BitstreamVeraSans-Roman-39"/>
      </defs>
      <g transform="translate(35.2578125 52.8250892857)scale(0.1 -0.1)">
       <use xlink:href="#BitstreamVeraSans-Roman-2212"/>
       <use x="83.7890625" xlink:href="#BitstreamVeraSans-Roman-39"/>
      </g>
     </g>
    </g>
    <g id="ytick_8">
     <g id="line2d_30">
      <g>
       <use style="stroke:#000000;stroke-width:0.5;" x="54.0" xlink:href="#m5e4858eaf9" y="23.76"/>
      </g>
     </g>
     <g id="line2d_31">
      <g>
       <use style="stroke:#000000;stroke-width:0.5;" x="388.8" xlink:href="#md2d7252345" y="23.76"/>
      </g>
     </g>
     <g id="text_8">
      <!-- −8 -->
      <defs>
       <path d="M 31.78125 34.625 
Q 24.75 34.625 20.71875 30.859375 
Q 16.703125 27.09375 16.703125 20.515625 
Q 16.703125 13.921875 20.71875 10.15625 
Q 24.75 6.390625 31.78125 6.390625 
Q 38.8125 6.390625 42.859375 10.171875 
Q 46.921875 13.96875 46.921875 20.515625 
Q 46.921875 27.09375 42.890625 30.859375 
Q 38.875 34.625 31.78125 34.625 
M 21.921875 38.8125 
Q 15.578125 40.375 12.03125 44.71875 
Q 8.5 49.078125 8.5 55.328125 
Q 8.5 64.0625 14.71875 69.140625 
Q 20.953125 74.21875 31.78125 74.21875 
Q 42.671875 74.21875 48.875 69.140625 
Q 55.078125 64.0625 55.078125 55.328125 
Q 55.078125 49.078125 51.53125 44.71875 
Q 48 40.375 41.703125 38.8125 
Q 48.828125 37.15625 52.796875 32.3125 
Q 56.78125 27.484375 56.78125 20.515625 
Q 56.78125 9.90625 50.3125 4.234375 
Q 43.84375 -1.421875 31.78125 -1.421875 
Q 19.734375 -1.421875 13.25 4.234375 
Q 6.78125 9.90625 6.78125 20.515625 
Q 6.78125 27.484375 10.78125 32.3125 
Q 14.796875 37.15625 21.921875 38.8125 
M 18.3125 54.390625 
Q 18.3125 48.734375 21.84375 45.5625 
Q 25.390625 42.390625 31.78125 42.390625 
Q 38.140625 42.390625 41.71875 45.5625 
Q 45.3125 48.734375 45.3125 54.390625 
Q 45.3125 60.0625 41.71875 63.234375 
Q 38.140625 66.40625 31.78125 66.40625 
Q 25.390625 66.40625 21.84375 63.234375 
Q 18.3125 60.0625 18.3125 54.390625 
" id="BitstreamVeraSans-Roman-38"/>
      </defs>
      <g transform="translate(35.2578125 26.519375)scale(0.1 -0.1)">
       <use xlink:href="#BitstreamVeraSans-Roman-2212"/>
       <use x="83.7890625" xlink:href="#BitstreamVeraSans-Roman-38"/>
      </g>
     </g>
    </g>
    <g id="text_9">
     <!-- log$_{10}$D$_c$ (m$^{2}$/s) at 904 $\degree$C -->
     <defs>
      <path id="BitstreamVeraSans-Roman-20"/>
      <path d="M 9.28125 0 
L 9.28125 3.515625 
Q 21.78125 3.515625 21.78125 6.6875 
L 21.78125 59.1875 
Q 16.609375 56.6875 8.6875 56.6875 
L 8.6875 60.203125 
Q 20.953125 60.203125 27.203125 66.609375 
L 28.609375 66.609375 
Q 28.953125 66.609375 29.265625 66.328125 
Q 29.59375 66.0625 29.59375 65.71875 
L 29.59375 6.6875 
Q 29.59375 3.515625 42.09375 3.515625 
L 42.09375 0 
z
" id="Cmr10-31"/>
      <path d="M 25 -2.203125 
Q 12.75 -2.203125 8.328125 7.875 
Q 3.90625 17.96875 3.90625 31.890625 
Q 3.90625 40.578125 5.484375 48.234375 
Q 7.078125 55.90625 11.78125 61.25 
Q 16.5 66.609375 25 66.609375 
Q 31.59375 66.609375 35.78125 63.375 
Q 39.984375 60.15625 42.1875 55.046875 
Q 44.390625 49.953125 45.1875 44.109375 
Q 46 38.28125 46 31.890625 
Q 46 23.296875 44.40625 15.796875 
Q 42.828125 8.296875 38.1875 3.046875 
Q 33.546875 -2.203125 25 -2.203125 
M 25 0.390625 
Q 30.5625 0.390625 33.296875 6.09375 
Q 36.03125 11.8125 36.671875 18.75 
Q 37.3125 25.6875 37.3125 33.5 
Q 37.3125 41.015625 36.671875 47.359375 
Q 36.03125 53.71875 33.3125 58.859375 
Q 30.609375 64.015625 25 64.015625 
Q 19.34375 64.015625 16.609375 58.828125 
Q 13.875 53.65625 13.234375 47.328125 
Q 12.59375 41.015625 12.59375 33.5 
Q 12.59375 27.9375 12.859375 23 
Q 13.140625 18.0625 14.3125 12.8125 
Q 15.484375 7.5625 18.09375 3.96875 
Q 20.703125 0.390625 25 0.390625 
" id="Cmr10-30"/>
      <path d="M 4.984375 0 
L 4.984375 2.6875 
Q 4.984375 2.9375 5.171875 3.21875 
L 20.703125 20.40625 
Q 24.21875 24.21875 26.40625 26.796875 
Q 28.609375 29.390625 30.75 32.765625 
Q 32.90625 36.140625 34.15625 39.625 
Q 35.40625 43.109375 35.40625 47.015625 
Q 35.40625 51.125 33.890625 54.859375 
Q 32.375 58.59375 29.375 60.84375 
Q 26.375 63.09375 22.125 63.09375 
Q 17.78125 63.09375 14.3125 60.46875 
Q 10.84375 57.859375 9.421875 53.71875 
Q 9.8125 53.8125 10.5 53.8125 
Q 12.75 53.8125 14.328125 52.296875 
Q 15.921875 50.78125 15.921875 48.390625 
Q 15.921875 46.09375 14.328125 44.5 
Q 12.75 42.921875 10.5 42.921875 
Q 8.15625 42.921875 6.5625 44.546875 
Q 4.984375 46.1875 4.984375 48.390625 
Q 4.984375 52.15625 6.390625 55.4375 
Q 7.8125 58.734375 10.46875 61.296875 
Q 13.140625 63.875 16.484375 65.234375 
Q 19.828125 66.609375 23.578125 66.609375 
Q 29.296875 66.609375 34.21875 64.1875 
Q 39.15625 61.765625 42.03125 57.34375 
Q 44.921875 52.9375 44.921875 47.015625 
Q 44.921875 42.671875 43.015625 38.765625 
Q 41.109375 34.859375 38.125 31.65625 
Q 35.15625 28.46875 30.515625 24.40625 
Q 25.875 20.359375 24.421875 19 
L 13.09375 8.109375 
L 22.703125 8.109375 
Q 29.78125 8.109375 34.546875 8.21875 
Q 39.3125 8.34375 39.59375 8.59375 
Q 40.765625 9.859375 42 17.828125 
L 44.921875 17.828125 
L 42.09375 0 
z
" id="Cmr10-32"/>
      <path d="M 8.015625 75.875 
L 15.828125 75.875 
Q 23.140625 64.359375 26.78125 53.3125 
Q 30.421875 42.28125 30.421875 31.390625 
Q 30.421875 20.453125 26.78125 9.375 
Q 23.140625 -1.703125 15.828125 -13.1875 
L 8.015625 -13.1875 
Q 14.5 -2 17.703125 9.0625 
Q 20.90625 20.125 20.90625 31.390625 
Q 20.90625 42.671875 17.703125 53.65625 
Q 14.5 64.65625 8.015625 75.875 
" id="BitstreamVeraSans-Roman-29"/>
      <path d="M 31 75.875 
Q 24.46875 64.65625 21.28125 53.65625 
Q 18.109375 42.671875 18.109375 31.390625 
Q 18.109375 20.125 21.3125 9.0625 
Q 24.515625 -2 31 -13.1875 
L 23.1875 -13.1875 
Q 15.875 -1.703125 12.234375 9.375 
Q 8.59375 20.453125 8.59375 31.390625 
Q 8.59375 42.28125 12.203125 53.3125 
Q 15.828125 64.359375 23.1875 75.875 
z
" id="BitstreamVeraSans-Roman-28"/>
      <path d="M 30.609375 48.390625 
Q 23.390625 48.390625 19.1875 42.75 
Q 14.984375 37.109375 14.984375 27.296875 
Q 14.984375 17.484375 19.15625 11.84375 
Q 23.34375 6.203125 30.609375 6.203125 
Q 37.796875 6.203125 41.984375 11.859375 
Q 46.1875 17.53125 46.1875 27.296875 
Q 46.1875 37.015625 41.984375 42.703125 
Q 37.796875 48.390625 30.609375 48.390625 
M 30.609375 56 
Q 42.328125 56 49.015625 48.375 
Q 55.71875 40.765625 55.71875 27.296875 
Q 55.71875 13.875 49.015625 6.21875 
Q 42.328125 -1.421875 30.609375 -1.421875 
Q 18.84375 -1.421875 12.171875 6.21875 
Q 5.515625 13.875 5.515625 27.296875 
Q 5.515625 40.765625 12.171875 48.375 
Q 18.84375 56 30.609375 56 
" id="BitstreamVeraSans-Roman-6f"/>
      <path d="M 18.3125 70.21875 
L 18.3125 54.6875 
L 36.8125 54.6875 
L 36.8125 47.703125 
L 18.3125 47.703125 
L 18.3125 18.015625 
Q 18.3125 11.328125 20.140625 9.421875 
Q 21.96875 7.515625 27.59375 7.515625 
L 36.8125 7.515625 
L 36.8125 0 
L 27.59375 0 
Q 17.1875 0 13.234375 3.875 
Q 9.28125 7.765625 9.28125 18.015625 
L 9.28125 47.703125 
L 2.6875 47.703125 
L 2.6875 54.6875 
L 9.28125 54.6875 
L 9.28125 70.21875 
z
" id="BitstreamVeraSans-Roman-74"/>
      <path d="M 9.421875 75.984375 
L 18.40625 75.984375 
L 18.40625 0 
L 9.421875 0 
z
" id="BitstreamVeraSans-Roman-6c"/>
      <path d="M 11.71875 11.921875 
Q 11.71875 7.5625 13.9375 4.53125 
Q 16.15625 1.515625 20.3125 1.515625 
Q 26.265625 1.515625 31.75 4.25 
Q 37.25 6.984375 40.71875 11.8125 
Q 41.015625 12.109375 41.5 12.109375 
Q 42 12.109375 42.5 11.546875 
Q 43.015625 10.984375 43.015625 10.5 
Q 43.015625 10.109375 42.828125 9.90625 
Q 39.15625 4.78125 32.953125 1.828125 
Q 26.765625 -1.125 20.125 -1.125 
Q 15.328125 -1.125 11.671875 1.140625 
Q 8.015625 3.421875 6 7.21875 
Q 4 11.03125 4 15.828125 
Q 4 22.5625 7.765625 29.203125 
Q 11.53125 35.84375 17.78125 40.015625 
Q 24.03125 44.1875 30.90625 44.1875 
Q 35.40625 44.1875 38.984375 42.015625 
Q 42.578125 39.84375 42.578125 35.59375 
Q 42.578125 32.859375 40.984375 30.921875 
Q 39.40625 29 36.71875 29 
Q 35.109375 29 34 30 
Q 32.90625 31 32.90625 32.625 
Q 32.90625 34.96875 34.609375 36.625 
Q 36.328125 38.28125 38.625 38.28125 
L 38.8125 38.28125 
Q 37.640625 39.984375 35.421875 40.796875 
Q 33.203125 41.609375 30.8125 41.609375 
Q 24.953125 41.609375 20.546875 36.59375 
Q 16.15625 31.59375 13.9375 24.625 
Q 11.71875 17.671875 11.71875 11.921875 
" id="Cmmi10-63"/>
      <path d="M 19.671875 64.796875 
L 19.671875 8.109375 
L 31.59375 8.109375 
Q 46.6875 8.109375 53.6875 14.9375 
Q 60.6875 21.78125 60.6875 36.53125 
Q 60.6875 51.171875 53.6875 57.984375 
Q 46.6875 64.796875 31.59375 64.796875 
z
M 9.8125 72.90625 
L 30.078125 72.90625 
Q 51.265625 72.90625 61.171875 64.09375 
Q 71.09375 55.28125 71.09375 36.53125 
Q 71.09375 17.671875 61.125 8.828125 
Q 51.171875 0 30.078125 0 
L 9.8125 0 
z
" id="BitstreamVeraSans-Roman-44"/>
      <path d="M 64.40625 67.28125 
L 64.40625 56.890625 
Q 59.421875 61.53125 53.78125 63.8125 
Q 48.140625 66.109375 41.796875 66.109375 
Q 29.296875 66.109375 22.65625 58.46875 
Q 16.015625 50.828125 16.015625 36.375 
Q 16.015625 21.96875 22.65625 14.328125 
Q 29.296875 6.6875 41.796875 6.6875 
Q 48.140625 6.6875 53.78125 8.984375 
Q 59.421875 11.28125 64.40625 15.921875 
L 64.40625 5.609375 
Q 59.234375 2.09375 53.4375 0.328125 
Q 47.65625 -1.421875 41.21875 -1.421875 
Q 24.65625 -1.421875 15.125 8.703125 
Q 5.609375 18.84375 5.609375 36.375 
Q 5.609375 53.953125 15.125 64.078125 
Q 24.65625 74.21875 41.21875 74.21875 
Q 47.75 74.21875 53.53125 72.484375 
Q 59.328125 70.75 64.40625 67.28125 
" id="BitstreamVeraSans-Roman-43"/>
      <path d="M 34.296875 53.296875 
Q 34.296875 47.296875 30.140625 43.140625 
Q 26 39 20 39 
Q 13.90625 39 9.796875 43.140625 
Q 5.703125 47.296875 5.703125 53.40625 
Q 5.703125 59.40625 9.890625 63.5 
Q 14.09375 67.59375 20.203125 67.59375 
Q 26 67.59375 30.140625 63.390625 
Q 34.296875 59.203125 34.296875 53.296875 
M 30.40625 53.40625 
Q 30.40625 57.796875 27.25 61 
Q 24.09375 64.203125 19.796875 64.203125 
Q 15.703125 64.203125 12.640625 60.953125 
Q 9.59375 57.703125 9.59375 53.296875 
Q 9.59375 48.796875 12.640625 45.59375 
Q 15.703125 42.40625 20 42.40625 
Q 24.296875 42.40625 27.34375 45.65625 
Q 30.40625 48.90625 30.40625 53.40625 
" id="STIXGeneral-Regular-b0"/>
      <path d="M 52 44.1875 
Q 55.375 50.25 60.0625 53.125 
Q 64.75 56 71.09375 56 
Q 79.640625 56 84.28125 50.015625 
Q 88.921875 44.046875 88.921875 33.015625 
L 88.921875 0 
L 79.890625 0 
L 79.890625 32.71875 
Q 79.890625 40.578125 77.09375 44.375 
Q 74.3125 48.1875 68.609375 48.1875 
Q 61.625 48.1875 57.5625 43.546875 
Q 53.515625 38.921875 53.515625 30.90625 
L 53.515625 0 
L 44.484375 0 
L 44.484375 32.71875 
Q 44.484375 40.625 41.703125 44.40625 
Q 38.921875 48.1875 33.109375 48.1875 
Q 26.21875 48.1875 22.15625 43.53125 
Q 18.109375 38.875 18.109375 30.90625 
L 18.109375 0 
L 9.078125 0 
L 9.078125 54.6875 
L 18.109375 54.6875 
L 18.109375 46.1875 
Q 21.1875 51.21875 25.484375 53.609375 
Q 29.78125 56 35.6875 56 
Q 41.65625 56 45.828125 52.96875 
Q 50 49.953125 52 44.1875 
" id="BitstreamVeraSans-Roman-6d"/>
      <path d="M 45.40625 27.984375 
Q 45.40625 37.75 41.375 43.109375 
Q 37.359375 48.484375 30.078125 48.484375 
Q 22.859375 48.484375 18.828125 43.109375 
Q 14.796875 37.75 14.796875 27.984375 
Q 14.796875 18.265625 18.828125 12.890625 
Q 22.859375 7.515625 30.078125 7.515625 
Q 37.359375 7.515625 41.375 12.890625 
Q 45.40625 18.265625 45.40625 27.984375 
M 54.390625 6.78125 
Q 54.390625 -7.171875 48.1875 -13.984375 
Q 42 -20.796875 29.203125 -20.796875 
Q 24.46875 -20.796875 20.265625 -20.09375 
Q 16.0625 -19.390625 12.109375 -17.921875 
L 12.109375 -9.1875 
Q 16.0625 -11.328125 19.921875 -12.34375 
Q 23.78125 -13.375 27.78125 -13.375 
Q 36.625 -13.375 41.015625 -8.765625 
Q 45.40625 -4.15625 45.40625 5.171875 
L 45.40625 9.625 
Q 42.625 4.78125 38.28125 2.390625 
Q 33.9375 0 27.875 0 
Q 17.828125 0 11.671875 7.65625 
Q 5.515625 15.328125 5.515625 27.984375 
Q 5.515625 40.671875 11.671875 48.328125 
Q 17.828125 56 27.875 56 
Q 33.9375 56 38.28125 53.609375 
Q 42.625 51.21875 45.40625 46.390625 
L 45.40625 54.6875 
L 54.390625 54.6875 
z
" id="BitstreamVeraSans-Roman-67"/>
      <path d="M 34.28125 27.484375 
Q 23.390625 27.484375 19.1875 25 
Q 14.984375 22.515625 14.984375 16.5 
Q 14.984375 11.71875 18.140625 8.90625 
Q 21.296875 6.109375 26.703125 6.109375 
Q 34.1875 6.109375 38.703125 11.40625 
Q 43.21875 16.703125 43.21875 25.484375 
L 43.21875 27.484375 
z
M 52.203125 31.203125 
L 52.203125 0 
L 43.21875 0 
L 43.21875 8.296875 
Q 40.140625 3.328125 35.546875 0.953125 
Q 30.953125 -1.421875 24.3125 -1.421875 
Q 15.921875 -1.421875 10.953125 3.296875 
Q 6 8.015625 6 15.921875 
Q 6 25.140625 12.171875 29.828125 
Q 18.359375 34.515625 30.609375 34.515625 
L 43.21875 34.515625 
L 43.21875 35.40625 
Q 43.21875 41.609375 39.140625 45 
Q 35.0625 48.390625 27.6875 48.390625 
Q 23 48.390625 18.546875 47.265625 
Q 14.109375 46.140625 10.015625 43.890625 
L 10.015625 52.203125 
Q 14.9375 54.109375 19.578125 55.046875 
Q 24.21875 56 28.609375 56 
Q 40.484375 56 46.34375 49.84375 
Q 52.203125 43.703125 52.203125 31.203125 
" id="BitstreamVeraSans-Roman-61"/>
      <path d="M 44.28125 53.078125 
L 44.28125 44.578125 
Q 40.484375 46.53125 36.375 47.5 
Q 32.28125 48.484375 27.875 48.484375 
Q 21.1875 48.484375 17.84375 46.4375 
Q 14.5 44.390625 14.5 40.28125 
Q 14.5 37.15625 16.890625 35.375 
Q 19.28125 33.59375 26.515625 31.984375 
L 29.59375 31.296875 
Q 39.15625 29.25 43.1875 25.515625 
Q 47.21875 21.78125 47.21875 15.09375 
Q 47.21875 7.46875 41.1875 3.015625 
Q 35.15625 -1.421875 24.609375 -1.421875 
Q 20.21875 -1.421875 15.453125 -0.5625 
Q 10.6875 0.296875 5.421875 2 
L 5.421875 11.28125 
Q 10.40625 8.6875 15.234375 7.390625 
Q 20.0625 6.109375 24.8125 6.109375 
Q 31.15625 6.109375 34.5625 8.28125 
Q 37.984375 10.453125 37.984375 14.40625 
Q 37.984375 18.0625 35.515625 20.015625 
Q 33.0625 21.96875 24.703125 23.78125 
L 21.578125 24.515625 
Q 13.234375 26.265625 9.515625 29.90625 
Q 5.8125 33.546875 5.8125 39.890625 
Q 5.8125 47.609375 11.28125 51.796875 
Q 16.75 56 26.8125 56 
Q 31.78125 56 36.171875 55.265625 
Q 40.578125 54.546875 44.28125 53.078125 
" id="BitstreamVeraSans-Roman-73"/>
      <path d="M 25.390625 72.90625 
L 33.6875 72.90625 
L 8.296875 -9.28125 
L 0 -9.28125 
z
" id="BitstreamVeraSans-Roman-2f"/>
     </defs>
     <g transform="translate(21.5853125 181.115)rotate(-90.0)scale(0.11 -0.11)">
      <use transform="translate(0.0 0.109375)" xlink:href="#BitstreamVeraSans-Roman-6c"/>
      <use transform="translate(27.783203125 0.109375)" xlink:href="#BitstreamVeraSans-Roman-6f"/>
      <use transform="translate(88.96484375 0.109375)" xlink:href="#BitstreamVeraSans-Roman-67"/>
      <use transform="translate(156.905546875 -16.896875)scale(0.7)" xlink:href="#Cmr10-31"/>
      <use transform="translate(191.905546875 -16.896875)scale(0.7)" xlink:href="#Cmr10-30"/>
      <use transform="translate(233.282890625 0.109375)" xlink:href="#BitstreamVeraSans-Roman-44"/>
      <use transform="translate(314.748984375 -16.896875)scale(0.7)" xlink:href="#Cmmi10-63"/>
      <use transform="translate(351.375351562 0.109375)" xlink:href="#BitstreamVeraSans-Roman-20"/>
      <use transform="translate(383.162460937 0.109375)" xlink:href="#BitstreamVeraSans-Roman-28"/>
      <use transform="translate(422.176132812 0.109375)" xlink:href="#BitstreamVeraSans-Roman-6d"/>
      <use transform="translate(524.052382813 38.3734375)scale(0.7)" xlink:href="#Cmr10-32"/>
      <use transform="translate(565.429726563 0.109375)" xlink:href="#BitstreamVeraSans-Roman-2f"/>
      <use transform="translate(599.105507813 0.109375)" xlink:href="#BitstreamVeraSans-Roman-73"/>
      <use transform="translate(651.205117188 0.109375)" xlink:href="#BitstreamVeraSans-Roman-29"/>
      <use transform="translate(690.218789063 0.109375)" xlink:href="#BitstreamVeraSans-Roman-20"/>
      <use transform="translate(722.005898438 0.109375)" xlink:href="#BitstreamVeraSans-Roman-61"/>
      <use transform="translate(783.285195313 0.109375)" xlink:href="#BitstreamVeraSans-Roman-74"/>
      <use transform="translate(822.494179688 0.109375)" xlink:href="#BitstreamVeraSans-Roman-20"/>
      <use transform="translate(854.281289063 0.109375)" xlink:href="#BitstreamVeraSans-Roman-39"/>
      <use transform="translate(917.904335938 0.109375)" xlink:href="#BitstreamVeraSans-Roman-30"/>
      <use transform="translate(981.527382813 0.109375)" xlink:href="#BitstreamVeraSans-Roman-34"/>
      <use transform="translate(1045.15042969 0.109375)" xlink:href="#BitstreamVeraSans-Roman-20"/>
      <use transform="translate(1076.93753906 0.109375)" xlink:href="#STIXGeneral-Regular-b0"/>
      <use transform="translate(1116.9375238 0.109375)" xlink:href="#BitstreamVeraSans-Roman-43"/>
     </g>
    </g>
   </g>
   <g id="text_10">
    <g id="patch_9">
     <path d="M 58.768125 51.940875 
L 105.031875 51.940875 
L 105.031875 32.407125 
L 58.768125 32.407125 
L 58.768125 51.940875 
z
" style="fill:none;"/>
    </g>
    <!-- bulk H -->
    <defs>
     <path d="M 9.8125 72.90625 
L 19.671875 72.90625 
L 19.671875 43.015625 
L 55.515625 43.015625 
L 55.515625 72.90625 
L 65.375 72.90625 
L 65.375 0 
L 55.515625 0 
L 55.515625 34.71875 
L 19.671875 34.71875 
L 19.671875 0 
L 9.8125 0 
z
" id="BitstreamVeraSans-Roman-48"/>
     <path d="M 8.5 21.578125 
L 8.5 54.6875 
L 17.484375 54.6875 
L 17.484375 21.921875 
Q 17.484375 14.15625 20.5 10.265625 
Q 23.53125 6.390625 29.59375 6.390625 
Q 36.859375 6.390625 41.078125 11.03125 
Q 45.3125 15.671875 45.3125 23.6875 
L 45.3125 54.6875 
L 54.296875 54.6875 
L 54.296875 0 
L 45.3125 0 
L 45.3125 8.40625 
Q 42.046875 3.421875 37.71875 1 
Q 33.40625 -1.421875 27.6875 -1.421875 
Q 18.265625 -1.421875 13.375 4.4375 
Q 8.5 10.296875 8.5 21.578125 
" id="BitstreamVeraSans-Roman-75"/>
     <path d="M 9.078125 75.984375 
L 18.109375 75.984375 
L 18.109375 31.109375 
L 44.921875 54.6875 
L 56.390625 54.6875 
L 27.390625 29.109375 
L 57.625 0 
L 45.90625 0 
L 18.109375 26.703125 
L 18.109375 0 
L 9.078125 0 
z
" id="BitstreamVeraSans-Roman-6b"/>
     <path d="M 48.6875 27.296875 
Q 48.6875 37.203125 44.609375 42.84375 
Q 40.53125 48.484375 33.40625 48.484375 
Q 26.265625 48.484375 22.1875 42.84375 
Q 18.109375 37.203125 18.109375 27.296875 
Q 18.109375 17.390625 22.1875 11.75 
Q 26.265625 6.109375 33.40625 6.109375 
Q 40.53125 6.109375 44.609375 11.75 
Q 48.6875 17.390625 48.6875 27.296875 
M 18.109375 46.390625 
Q 20.953125 51.265625 25.265625 53.625 
Q 29.59375 56 35.59375 56 
Q 45.5625 56 51.78125 48.09375 
Q 58.015625 40.1875 58.015625 27.296875 
Q 58.015625 14.40625 51.78125 6.484375 
Q 45.5625 -1.421875 35.59375 -1.421875 
Q 29.59375 -1.421875 25.265625 0.953125 
Q 20.953125 3.328125 18.109375 8.203125 
L 18.109375 0 
L 9.078125 0 
L 9.078125 75.984375 
L 18.109375 75.984375 
z
" id="BitstreamVeraSans-Roman-62"/>
    </defs>
    <g transform="translate(62.728125 45.48525)scale(0.12 -0.12)">
     <use xlink:href="#BitstreamVeraSans-Roman-62"/>
     <use x="63.4765625" xlink:href="#BitstreamVeraSans-Roman-75"/>
     <use x="126.85546875" xlink:href="#BitstreamVeraSans-Roman-6c"/>
     <use x="154.638671875" xlink:href="#BitstreamVeraSans-Roman-6b"/>
     <use x="212.548828125" xlink:href="#BitstreamVeraSans-Roman-20"/>
     <use x="244.3359375" xlink:href="#BitstreamVeraSans-Roman-48"/>
    </g>
   </g>
   <g id="text_11">
    <g id="patch_10">
     <path d="M 118.47 58.659563 
L 156.93 58.659563 
L 156.93 25.688438 
L 118.47 25.688438 
L 118.47 58.659563 
z
" style="fill:none;"/>
    </g>
    <!-- 3645 -->
    <defs>
     <path d="M 33.015625 40.375 
Q 26.375 40.375 22.484375 35.828125 
Q 18.609375 31.296875 18.609375 23.390625 
Q 18.609375 15.53125 22.484375 10.953125 
Q 26.375 6.390625 33.015625 6.390625 
Q 39.65625 6.390625 43.53125 10.953125 
Q 47.40625 15.53125 47.40625 23.390625 
Q 47.40625 31.296875 43.53125 35.828125 
Q 39.65625 40.375 33.015625 40.375 
M 52.59375 71.296875 
L 52.59375 62.3125 
Q 48.875 64.0625 45.09375 64.984375 
Q 41.3125 65.921875 37.59375 65.921875 
Q 27.828125 65.921875 22.671875 59.328125 
Q 17.53125 52.734375 16.796875 39.40625 
Q 19.671875 43.65625 24.015625 45.921875 
Q 28.375 48.1875 33.59375 48.1875 
Q 44.578125 48.1875 50.953125 41.515625 
Q 57.328125 34.859375 57.328125 23.390625 
Q 57.328125 12.15625 50.6875 5.359375 
Q 44.046875 -1.421875 33.015625 -1.421875 
Q 20.359375 -1.421875 13.671875 8.265625 
Q 6.984375 17.96875 6.984375 36.375 
Q 6.984375 53.65625 15.1875 63.9375 
Q 23.390625 74.21875 37.203125 74.21875 
Q 40.921875 74.21875 44.703125 73.484375 
Q 48.484375 72.75 52.59375 71.296875 
" id="BitstreamVeraSans-Roman-36"/>
    </defs>
    <g transform="translate(122.43 38.7665625)scale(0.12 -0.12)">
     <use xlink:href="#BitstreamVeraSans-Roman-33"/>
     <use x="63.623046875" xlink:href="#BitstreamVeraSans-Roman-36"/>
     <use x="127.24609375" xlink:href="#BitstreamVeraSans-Roman-34"/>
     <use x="190.869140625" xlink:href="#BitstreamVeraSans-Roman-35"/>
    </g>
    <!-- cm$^{-1}$ -->
    <defs>
     <path d="M 10.203125 23 
Q 9.375 23 8.828125 23.625 
Q 8.296875 24.265625 8.296875 25 
Q 8.296875 25.734375 8.828125 26.359375 
Q 9.375 27 10.203125 27 
L 67.578125 27 
Q 68.359375 27 68.875 26.359375 
Q 69.390625 25.734375 69.390625 25 
Q 69.390625 24.265625 68.875 23.625 
Q 68.359375 23 67.578125 23 
z
" id="Cmsy10-a1"/>
     <path d="M 48.78125 52.59375 
L 48.78125 44.1875 
Q 44.96875 46.296875 41.140625 47.34375 
Q 37.3125 48.390625 33.40625 48.390625 
Q 24.65625 48.390625 19.8125 42.84375 
Q 14.984375 37.3125 14.984375 27.296875 
Q 14.984375 17.28125 19.8125 11.734375 
Q 24.65625 6.203125 33.40625 6.203125 
Q 37.3125 6.203125 41.140625 7.25 
Q 44.96875 8.296875 48.78125 10.40625 
L 48.78125 2.09375 
Q 45.015625 0.34375 40.984375 -0.53125 
Q 36.96875 -1.421875 32.421875 -1.421875 
Q 20.0625 -1.421875 12.78125 6.34375 
Q 5.515625 14.109375 5.515625 27.296875 
Q 5.515625 40.671875 12.859375 48.328125 
Q 20.21875 56 33.015625 56 
Q 37.15625 56 41.109375 55.140625 
Q 45.0625 54.296875 48.78125 52.59375 
" id="BitstreamVeraSans-Roman-63"/>
    </defs>
    <g transform="translate(122.52 52.2039375)scale(0.12 -0.12)">
     <use transform="translate(0.0 0.109375)" xlink:href="#BitstreamVeraSans-Roman-63"/>
     <use transform="translate(54.98046875 0.109375)" xlink:href="#BitstreamVeraSans-Roman-6d"/>
     <use transform="translate(156.85671875 38.3734375)scale(0.7)" xlink:href="#Cmsy10-a1"/>
     <use transform="translate(211.236601562 38.3734375)scale(0.7)" xlink:href="#Cmr10-31"/>
    </g>
   </g>
   <g id="text_12">
    <g id="patch_11">
     <path d="M 174.27 58.659563 
L 212.73 58.659563 
L 212.73 25.688438 
L 174.27 25.688438 
L 174.27 58.659563 
z
" style="fill:none;"/>
    </g>
    <!-- 3617 -->
    <defs>
     <path d="M 8.203125 72.90625 
L 55.078125 72.90625 
L 55.078125 68.703125 
L 28.609375 0 
L 18.3125 0 
L 43.21875 64.59375 
L 8.203125 64.59375 
z
" id="BitstreamVeraSans-Roman-37"/>
    </defs>
    <g transform="translate(178.23 38.7665625)scale(0.12 -0.12)">
     <use xlink:href="#BitstreamVeraSans-Roman-33"/>
     <use x="63.623046875" xlink:href="#BitstreamVeraSans-Roman-36"/>
     <use x="127.24609375" xlink:href="#BitstreamVeraSans-Roman-31"/>
     <use x="190.869140625" xlink:href="#BitstreamVeraSans-Roman-37"/>
    </g>
    <!-- cm$^{-1}$ -->
    <g transform="translate(178.32 52.2039375)scale(0.12 -0.12)">
     <use transform="translate(0.0 0.109375)" xlink:href="#BitstreamVeraSans-Roman-63"/>
     <use transform="translate(54.98046875 0.109375)" xlink:href="#BitstreamVeraSans-Roman-6d"/>
     <use transform="translate(156.85671875 38.3734375)scale(0.7)" xlink:href="#Cmsy10-a1"/>
     <use transform="translate(211.236601562 38.3734375)scale(0.7)" xlink:href="#Cmr10-31"/>
    </g>
   </g>
   <g id="text_13">
    <g id="patch_12">
     <path d="M 230.07 58.659563 
L 268.53 58.659563 
L 268.53 25.688438 
L 230.07 25.688438 
L 230.07 58.659563 
z
" style="fill:none;"/>
    </g>
    <!-- 3540 -->
    <g transform="translate(234.03 38.7665625)scale(0.12 -0.12)">
     <use xlink:href="#BitstreamVeraSans-Roman-33"/>
     <use x="63.623046875" xlink:href="#BitstreamVeraSans-Roman-35"/>
     <use x="127.24609375" xlink:href="#BitstreamVeraSans-Roman-34"/>
     <use x="190.869140625" xlink:href="#BitstreamVeraSans-Roman-30"/>
    </g>
    <!-- cm$^{-1}$ -->
    <g transform="translate(234.12 52.2039375)scale(0.12 -0.12)">
     <use transform="translate(0.0 0.109375)" xlink:href="#BitstreamVeraSans-Roman-63"/>
     <use transform="translate(54.98046875 0.109375)" xlink:href="#BitstreamVeraSans-Roman-6d"/>
     <use transform="translate(156.85671875 38.3734375)scale(0.7)" xlink:href="#Cmsy10-a1"/>
     <use transform="translate(211.236601562 38.3734375)scale(0.7)" xlink:href="#Cmr10-31"/>
    </g>
   </g>
   <g id="text_14">
    <g id="patch_13">
     <path d="M 285.87 58.659563 
L 324.33 58.659563 
L 324.33 25.688438 
L 285.87 25.688438 
L 285.87 58.659563 
z
" style="fill:none;"/>
    </g>
    <!-- 3443 -->
    <g transform="translate(289.83 38.7665625)scale(0.12 -0.12)">
     <use xlink:href="#BitstreamVeraSans-Roman-33"/>
     <use x="63.623046875" xlink:href="#BitstreamVeraSans-Roman-34"/>
     <use x="127.24609375" xlink:href="#BitstreamVeraSans-Roman-34"/>
     <use x="190.869140625" xlink:href="#BitstreamVeraSans-Roman-33"/>
    </g>
    <!-- cm$^{-1}$ -->
    <g transform="translate(289.92 52.2039375)scale(0.12 -0.12)">
     <use transform="translate(0.0 0.109375)" xlink:href="#BitstreamVeraSans-Roman-63"/>
     <use transform="translate(54.98046875 0.109375)" xlink:href="#BitstreamVeraSans-Roman-6d"/>
     <use transform="translate(156.85671875 38.3734375)scale(0.7)" xlink:href="#Cmsy10-a1"/>
     <use transform="translate(211.236601562 38.3734375)scale(0.7)" xlink:href="#Cmr10-31"/>
    </g>
   </g>
   <g id="text_15">
    <g id="patch_14">
     <path d="M 341.67 58.659563 
L 380.13 58.659563 
L 380.13 25.688438 
L 341.67 25.688438 
L 341.67 58.659563 
z
" style="fill:none;"/>
    </g>
    <!-- 3355 -->
    <g transform="translate(345.63 38.7665625)scale(0.12 -0.12)">
     <use xlink:href="#BitstreamVeraSans-Roman-33"/>
     <use x="63.623046875" xlink:href="#BitstreamVeraSans-Roman-33"/>
     <use x="127.24609375" xlink:href="#BitstreamVeraSans-Roman-35"/>
     <use x="190.869140625" xlink:href="#BitstreamVeraSans-Roman-35"/>
    </g>
    <!-- cm$^{-1}$ -->
    <g transform="translate(345.72 52.2039375)scale(0.12 -0.12)">
     <use transform="translate(0.0 0.109375)" xlink:href="#BitstreamVeraSans-Roman-63"/>
     <use transform="translate(54.98046875 0.109375)" xlink:href="#BitstreamVeraSans-Roman-6d"/>
     <use transform="translate(156.85671875 38.3734375)scale(0.7)" xlink:href="#Cmsy10-a1"/>
     <use transform="translate(211.236601562 38.3734375)scale(0.7)" xlink:href="#Cmr10-31"/>
    </g>
   </g>
   <g id="text_16">
    <!-- ${Kunlun}$ -->
    <defs>
     <path d="M 4.390625 8.109375 
Q 4.390625 8.40625 4.46875 8.984375 
Q 4.546875 9.578125 4.609375 10.125 
Q 4.6875 10.6875 4.6875 10.984375 
L 17.09375 60.5 
Q 17.484375 62.203125 17.578125 63.1875 
Q 17.578125 64.796875 11.078125 64.796875 
Q 10.109375 64.796875 10.109375 66.109375 
Q 10.15625 66.359375 10.328125 66.984375 
Q 10.5 67.625 10.765625 67.96875 
Q 11.03125 68.3125 11.53125 68.3125 
L 25 69.390625 
Q 26.21875 69.390625 26.21875 68.109375 
L 11.8125 10.59375 
Q 11.078125 8.984375 11.078125 5.8125 
Q 11.078125 1.515625 14.015625 1.515625 
Q 17.09375 1.515625 18.625 5.34375 
Q 20.171875 9.1875 21.390625 14.703125 
Q 21.578125 15.28125 22.21875 15.28125 
L 23.390625 15.28125 
Q 23.78125 15.28125 24.046875 14.96875 
Q 24.3125 14.65625 24.3125 14.3125 
Q 23.140625 9.46875 22.1875 6.65625 
Q 21.234375 3.859375 19.140625 1.359375 
Q 17.046875 -1.125 13.8125 -1.125 
Q 9.8125 -1.125 7.09375 1.453125 
Q 4.390625 4.046875 4.390625 8.109375 
" id="Cmmi10-6c"/>
     <path d="M 7.71875 1.703125 
Q 7.71875 2.296875 7.8125 2.59375 
L 15.28125 32.421875 
Q 16.015625 35.203125 16.015625 37.3125 
Q 16.015625 41.609375 13.09375 41.609375 
Q 9.96875 41.609375 8.453125 37.859375 
Q 6.9375 34.125 5.515625 28.421875 
Q 5.515625 28.125 5.21875 27.953125 
Q 4.9375 27.78125 4.6875 27.78125 
L 3.515625 27.78125 
Q 3.171875 27.78125 2.921875 28.140625 
Q 2.6875 28.515625 2.6875 28.8125 
Q 3.765625 33.15625 4.765625 36.171875 
Q 5.765625 39.203125 7.890625 41.6875 
Q 10.015625 44.1875 13.1875 44.1875 
Q 16.9375 44.1875 19.8125 41.8125 
Q 22.703125 39.453125 22.703125 35.796875 
Q 25.6875 39.703125 29.6875 41.9375 
Q 33.6875 44.1875 38.1875 44.1875 
Q 41.75 44.1875 44.328125 42.96875 
Q 46.921875 41.75 48.359375 39.28125 
Q 49.8125 36.8125 49.8125 33.40625 
Q 49.8125 29.296875 47.96875 23.484375 
Q 46.140625 17.671875 43.40625 10.5 
Q 42 7.234375 42 4.5 
Q 42 1.515625 44.28125 1.515625 
Q 48.1875 1.515625 50.796875 5.703125 
Q 53.421875 9.90625 54.5 14.703125 
Q 54.6875 15.28125 55.328125 15.28125 
L 56.5 15.28125 
Q 56.890625 15.28125 57.15625 15.03125 
Q 57.421875 14.796875 57.421875 14.40625 
Q 57.421875 14.3125 57.328125 14.109375 
Q 55.953125 8.453125 52.5625 3.65625 
Q 49.171875 -1.125 44.09375 -1.125 
Q 40.578125 -1.125 38.078125 1.296875 
Q 35.59375 3.71875 35.59375 7.171875 
Q 35.59375 9.03125 36.375 11.078125 
Q 37.640625 14.359375 39.28125 18.890625 
Q 40.921875 23.4375 41.96875 27.578125 
Q 43.015625 31.734375 43.015625 34.90625 
Q 43.015625 37.703125 41.859375 39.65625 
Q 40.71875 41.609375 37.984375 41.609375 
Q 34.328125 41.609375 31.25 39.984375 
Q 28.171875 38.375 25.875 35.71875 
Q 23.578125 33.0625 21.6875 29.390625 
L 14.890625 2.203125 
Q 14.546875 0.828125 13.34375 -0.140625 
Q 12.15625 -1.125 10.6875 -1.125 
Q 9.46875 -1.125 8.59375 -0.34375 
Q 7.71875 0.4375 7.71875 1.703125 
" id="Cmmi10-6e"/>
     <path d="M 4.6875 0 
Q 3.71875 0 3.71875 1.3125 
Q 3.765625 1.5625 3.90625 2.171875 
Q 4.046875 2.78125 4.3125 3.140625 
Q 4.59375 3.515625 4.984375 3.515625 
Q 11.078125 3.515625 13.484375 4.203125 
Q 14.796875 4.640625 15.375 6.890625 
L 29.109375 61.8125 
Q 29.296875 62.796875 29.296875 63.1875 
Q 29.296875 64.265625 28.078125 64.40625 
Q 26.21875 64.796875 20.90625 64.796875 
Q 19.921875 64.796875 19.921875 66.109375 
Q 20.265625 67.390625 20.453125 67.84375 
Q 20.65625 68.3125 21.578125 68.3125 
L 48.484375 68.3125 
Q 49.515625 68.3125 49.515625 67 
Q 49.46875 66.75 49.3125 66.15625 
Q 49.171875 65.578125 48.921875 65.1875 
Q 48.6875 64.796875 48.1875 64.796875 
Q 42.09375 64.796875 39.703125 64.109375 
Q 38.375 63.625 37.796875 61.375 
L 29.6875 29 
L 68.890625 59.28125 
Q 69 59.46875 70.140625 60.609375 
Q 71.296875 61.765625 71.296875 62.890625 
Q 71.296875 64.796875 67.921875 64.796875 
Q 66.890625 64.796875 66.890625 66.109375 
Q 67.09375 66.890625 67.203125 67.328125 
Q 67.328125 67.78125 67.640625 68.046875 
Q 67.96875 68.3125 68.609375 68.3125 
L 87.984375 68.3125 
Q 88.53125 68.3125 88.765625 67.921875 
Q 89.015625 67.53125 89.015625 67 
Q 88.96875 66.75 88.796875 66.109375 
Q 88.625 65.484375 88.359375 65.140625 
Q 88.09375 64.796875 87.59375 64.796875 
Q 80.28125 64.796875 71.578125 58.015625 
Q 71.53125 57.953125 71.4375 57.921875 
Q 71.34375 57.90625 71.234375 57.875 
Q 71.140625 57.859375 71.09375 57.8125 
L 50.484375 41.796875 
L 65.484375 6.6875 
Q 66.84375 4.5 68.40625 4 
Q 69.96875 3.515625 73.1875 3.515625 
Q 74.21875 3.515625 74.21875 2.203125 
Q 73.921875 1.03125 73.625 0.515625 
Q 73.34375 0 72.515625 0 
L 49.3125 0 
Q 48.390625 0 48.390625 1.3125 
Q 48.53125 2.34375 48.71875 2.921875 
Q 48.921875 3.515625 49.703125 3.515625 
Q 52.25 3.515625 54.03125 4.03125 
Q 55.8125 4.546875 55.8125 6.390625 
Q 55.8125 7.078125 55.71875 7.421875 
L 43.3125 36.28125 
L 28.71875 25 
L 24.125 6.5 
Q 23.875 5.28125 23.875 5.078125 
Q 23.875 4.046875 25.09375 3.90625 
Q 27 3.515625 32.328125 3.515625 
Q 33.296875 3.515625 33.296875 2.203125 
Q 32.953125 0.78125 32.75 0.390625 
Q 32.5625 0 31.59375 0 
z
" id="Cmmi10-4b"/>
     <path d="M 10.59375 10.890625 
Q 10.59375 14.15625 11.46875 17.59375 
Q 12.359375 21.046875 13.9375 25.265625 
Q 15.53125 29.5 16.703125 32.625 
Q 18.015625 36.28125 18.015625 38.625 
Q 18.015625 41.609375 15.828125 41.609375 
Q 11.859375 41.609375 9.296875 37.53125 
Q 6.734375 33.453125 5.515625 28.421875 
Q 5.328125 27.78125 4.6875 27.78125 
L 3.515625 27.78125 
Q 2.6875 27.78125 2.6875 28.71875 
L 2.6875 29 
Q 4.296875 34.96875 7.609375 39.578125 
Q 10.9375 44.1875 16.015625 44.1875 
Q 19.578125 44.1875 22.046875 41.84375 
Q 24.515625 39.5 24.515625 35.890625 
Q 24.515625 34.03125 23.6875 31.984375 
Q 23.25 30.765625 21.6875 26.65625 
Q 20.125 22.5625 19.28125 19.875 
Q 18.453125 17.1875 17.921875 14.59375 
Q 17.390625 12.015625 17.390625 9.421875 
Q 17.390625 6.109375 18.796875 3.8125 
Q 20.21875 1.515625 23.390625 1.515625 
Q 29.78125 1.515625 34.625 9.421875 
Q 34.71875 9.8125 34.78125 10.171875 
Q 34.859375 10.546875 34.90625 10.890625 
L 42.09375 39.890625 
Q 42.4375 41.21875 43.65625 42.15625 
Q 44.875 43.109375 46.296875 43.109375 
Q 47.515625 43.109375 48.40625 42.328125 
Q 49.3125 41.546875 49.3125 40.28125 
Q 49.3125 39.703125 49.21875 39.5 
L 42 10.6875 
Q 41.3125 7.71875 41.3125 5.8125 
Q 41.3125 1.515625 44.1875 1.515625 
Q 47.40625 1.515625 49 5.484375 
Q 50.59375 9.46875 51.703125 14.703125 
Q 51.90625 15.28125 52.484375 15.28125 
L 53.71875 15.28125 
Q 54.109375 15.28125 54.34375 14.9375 
Q 54.59375 14.59375 54.59375 14.3125 
Q 53.515625 10.015625 52.515625 6.9375 
Q 51.515625 3.859375 49.359375 1.359375 
Q 47.21875 -1.125 44 -1.125 
Q 40.828125 -1.125 38.3125 0.609375 
Q 35.796875 2.34375 34.90625 5.328125 
Q 32.625 2.390625 29.59375 0.625 
Q 26.5625 -1.125 23.1875 -1.125 
Q 17.4375 -1.125 14.015625 2.015625 
Q 10.59375 5.171875 10.59375 10.890625 
" id="Cmmi10-75"/>
    </defs>
    <g transform="translate(221.3 183.378714286)scale(0.16 -0.16)">
     <use transform="translate(0.0 0.609375)" xlink:href="#Cmmi10-4b"/>
     <use transform="translate(84.912109375 0.609375)" xlink:href="#Cmmi10-75"/>
     <use transform="translate(142.08984375 0.609375)" xlink:href="#Cmmi10-6e"/>
     <use transform="translate(202.099609375 0.609375)" xlink:href="#Cmmi10-6c"/>
     <use transform="translate(231.884765625 0.609375)" xlink:href="#Cmmi10-75"/>
     <use transform="translate(289.0625 0.609375)" xlink:href="#Cmmi10-6e"/>
    </g>
   </g>
   <g id="text_17">
    <!-- ${Jaipur}$ -->
    <defs>
     <path d="M 17.390625 -1.125 
Q 11.078125 -1.125 7.4375 3.640625 
Q 3.8125 8.40625 3.8125 14.890625 
Q 3.8125 21.296875 7.125 28.171875 
Q 10.453125 35.0625 16.09375 39.625 
Q 21.734375 44.1875 28.21875 44.1875 
Q 31.203125 44.1875 33.546875 42.578125 
Q 35.890625 40.96875 37.203125 38.1875 
Q 38.328125 42.1875 41.609375 42.1875 
Q 42.875 42.1875 43.71875 41.421875 
Q 44.578125 40.671875 44.578125 39.40625 
Q 44.578125 39.109375 44.546875 38.953125 
Q 44.53125 38.8125 44.484375 38.625 
L 37.5 10.6875 
Q 36.8125 7.71875 36.8125 5.8125 
Q 36.8125 1.515625 39.703125 1.515625 
Q 42.828125 1.515625 44.453125 5.484375 
Q 46.09375 9.46875 47.21875 14.703125 
Q 47.40625 15.28125 48 15.28125 
L 49.21875 15.28125 
Q 49.609375 15.28125 49.84375 14.9375 
Q 50.09375 14.59375 50.09375 14.3125 
Q 48.34375 7.328125 46.265625 3.09375 
Q 44.1875 -1.125 39.5 -1.125 
Q 36.140625 -1.125 33.546875 0.84375 
Q 30.953125 2.828125 30.328125 6.109375 
Q 23.875 -1.125 17.390625 -1.125 
M 17.484375 1.515625 
Q 21.09375 1.515625 24.484375 4.21875 
Q 27.875 6.9375 30.328125 10.59375 
Q 30.421875 10.6875 30.421875 10.890625 
L 35.796875 32.625 
L 35.890625 32.90625 
Q 35.296875 36.46875 33.3125 39.03125 
Q 31.34375 41.609375 27.984375 41.609375 
Q 24.609375 41.609375 21.703125 38.84375 
Q 18.796875 36.078125 16.796875 32.328125 
Q 14.84375 28.328125 13.0625 21.34375 
Q 11.28125 14.359375 11.28125 10.5 
Q 11.28125 7.03125 12.765625 4.265625 
Q 14.265625 1.515625 17.484375 1.515625 
" id="Cmmi10-61"/>
     <path d="M 7.8125 7.171875 
Q 7.8125 9.03125 8.59375 11.078125 
L 16.703125 32.625 
Q 18.015625 36.28125 18.015625 38.625 
Q 18.015625 41.609375 15.828125 41.609375 
Q 11.859375 41.609375 9.296875 37.53125 
Q 6.734375 33.453125 5.515625 28.421875 
Q 5.328125 27.78125 4.6875 27.78125 
L 3.515625 27.78125 
Q 2.6875 27.78125 2.6875 28.71875 
L 2.6875 29 
Q 4.296875 34.96875 7.609375 39.578125 
Q 10.9375 44.1875 16.015625 44.1875 
Q 19.578125 44.1875 22.046875 41.84375 
Q 24.515625 39.5 24.515625 35.890625 
Q 24.515625 34.03125 23.6875 31.984375 
L 15.578125 10.5 
Q 14.203125 7.171875 14.203125 4.5 
Q 14.203125 1.515625 16.5 1.515625 
Q 20.40625 1.515625 23.015625 5.6875 
Q 25.640625 9.859375 26.703125 14.703125 
Q 26.90625 15.28125 27.484375 15.28125 
L 28.71875 15.28125 
Q 29.109375 15.28125 29.34375 15.015625 
Q 29.59375 14.75 29.59375 14.40625 
Q 29.59375 14.3125 29.5 14.109375 
Q 28.125 8.453125 24.734375 3.65625 
Q 21.34375 -1.125 16.3125 -1.125 
Q 12.796875 -1.125 10.296875 1.296875 
Q 7.8125 3.71875 7.8125 7.171875 
M 19.09375 60.59375 
Q 19.09375 62.703125 20.84375 64.40625 
Q 22.609375 66.109375 24.703125 66.109375 
Q 26.421875 66.109375 27.515625 65.0625 
Q 28.609375 64.015625 28.609375 62.40625 
Q 28.609375 60.15625 26.828125 58.46875 
Q 25.046875 56.78125 22.90625 56.78125 
Q 21.296875 56.78125 20.1875 57.875 
Q 19.09375 58.984375 19.09375 60.59375 
" id="Cmmi10-69"/>
     <path d="M -2.484375 -19.390625 
Q -3.421875 -19.390625 -3.421875 -18.109375 
Q -3.078125 -15.921875 -2.09375 -15.921875 
Q 1.03125 -15.921875 2.265625 -15.359375 
Q 3.515625 -14.796875 4.203125 -12.5 
L 15.484375 32.515625 
Q 16.21875 34.375 16.21875 37.3125 
Q 16.21875 41.609375 13.28125 41.609375 
Q 10.15625 41.609375 8.640625 37.859375 
Q 7.125 34.125 5.71875 28.421875 
Q 5.71875 27.78125 4.890625 27.78125 
L 3.71875 27.78125 
Q 3.46875 27.78125 3.171875 28.140625 
Q 2.875 28.515625 2.875 28.8125 
Q 3.953125 33.15625 4.953125 36.171875 
Q 5.953125 39.203125 8.078125 41.6875 
Q 10.203125 44.1875 13.375 44.1875 
Q 16.796875 44.1875 19.375 42.25 
Q 21.96875 40.328125 22.703125 37.015625 
Q 25.4375 40.1875 28.75 42.1875 
Q 32.078125 44.1875 35.59375 44.1875 
Q 39.796875 44.1875 42.890625 41.9375 
Q 46 39.703125 47.5625 36.0625 
Q 49.125 32.421875 49.125 28.21875 
Q 49.125 21.78125 45.828125 14.890625 
Q 42.53125 8.015625 36.890625 3.4375 
Q 31.25 -1.125 24.8125 -1.125 
Q 21.875 -1.125 19.5 0.53125 
Q 17.140625 2.203125 15.828125 4.890625 
L 11.28125 -12.890625 
Q 11.03125 -14.359375 10.984375 -14.59375 
Q 10.984375 -15.921875 17.578125 -15.921875 
Q 18.609375 -15.921875 18.609375 -17.1875 
Q 18.265625 -18.5 18.046875 -18.9375 
Q 17.828125 -19.390625 16.890625 -19.390625 
z
M 24.90625 1.515625 
Q 28.375 1.515625 31.34375 4.375 
Q 34.328125 7.234375 36.1875 10.796875 
Q 37.546875 13.484375 38.734375 17.359375 
Q 39.9375 21.234375 40.8125 25.625 
Q 41.703125 30.03125 41.703125 32.625 
Q 41.703125 34.90625 41.09375 36.90625 
Q 40.484375 38.921875 39.09375 40.265625 
Q 37.703125 41.609375 35.40625 41.609375 
Q 31.734375 41.609375 28.484375 38.984375 
Q 25.25 36.375 22.609375 32.515625 
L 22.609375 32.171875 
L 17.09375 10.109375 
Q 17.78125 6.546875 19.734375 4.03125 
Q 21.6875 1.515625 24.90625 1.515625 
" id="Cmmi10-70"/>
     <path d="M 7.71875 1.703125 
Q 7.71875 2.296875 7.8125 2.59375 
L 15.28125 32.421875 
Q 16.015625 35.203125 16.015625 37.3125 
Q 16.015625 41.609375 13.09375 41.609375 
Q 9.96875 41.609375 8.453125 37.859375 
Q 6.9375 34.125 5.515625 28.421875 
Q 5.515625 28.125 5.21875 27.953125 
Q 4.9375 27.78125 4.6875 27.78125 
L 3.515625 27.78125 
Q 3.171875 27.78125 2.921875 28.140625 
Q 2.6875 28.515625 2.6875 28.8125 
Q 3.765625 33.15625 4.765625 36.171875 
Q 5.765625 39.203125 7.890625 41.6875 
Q 10.015625 44.1875 13.1875 44.1875 
Q 16.65625 44.1875 19.265625 42.1875 
Q 21.875 40.1875 22.515625 36.921875 
Q 25.046875 40.234375 28.296875 42.203125 
Q 31.546875 44.1875 35.40625 44.1875 
Q 38.578125 44.1875 40.984375 42.328125 
Q 43.40625 40.484375 43.40625 37.3125 
Q 43.40625 34.765625 41.8125 32.875 
Q 40.234375 31 37.59375 31 
Q 35.984375 31 34.890625 32 
Q 33.796875 33.015625 33.796875 34.625 
Q 33.796875 36.8125 35.40625 38.546875 
Q 37.015625 40.28125 39.109375 40.28125 
Q 37.5 41.609375 35.203125 41.609375 
Q 30.90625 41.609375 27.734375 38.546875 
Q 24.5625 35.5 22.015625 30.8125 
L 14.890625 2.203125 
Q 14.546875 0.828125 13.34375 -0.140625 
Q 12.15625 -1.125 10.6875 -1.125 
Q 9.46875 -1.125 8.59375 -0.34375 
Q 7.71875 0.4375 7.71875 1.703125 
" id="Cmmi10-72"/>
     <path d="M 10.890625 6 
Q 11.859375 3.21875 14.5 1.796875 
Q 17.140625 0.390625 20.21875 0.390625 
Q 23.34375 0.390625 26.25 2.5625 
Q 29.15625 4.734375 31.171875 8 
Q 33.203125 11.28125 33.984375 14.5 
L 45.796875 61.8125 
Q 45.90625 62.203125 45.921875 62.390625 
Q 45.953125 62.59375 46 62.796875 
Q 46 63.875 45.21875 64.109375 
Q 42.578125 64.796875 34.515625 64.796875 
Q 33.5 64.796875 33.5 66.109375 
Q 33.6875 66.890625 33.8125 67.328125 
Q 33.9375 67.78125 34.25 68.046875 
Q 34.578125 68.3125 35.203125 68.3125 
L 62.3125 68.3125 
Q 63.28125 68.3125 63.28125 67 
Q 62.890625 64.796875 62.015625 64.796875 
Q 58.5 64.796875 56.6875 64.25 
Q 54.890625 63.71875 54.203125 61.375 
L 42.390625 14.109375 
Q 41.265625 9.46875 37.8125 5.734375 
Q 34.375 2 29.640625 -0.09375 
Q 24.90625 -2.203125 20.125 -2.203125 
Q 14.84375 -2.203125 10.859375 0.71875 
Q 6.890625 3.65625 6.890625 8.6875 
Q 6.890625 12.015625 8.6875 14.40625 
Q 10.5 16.796875 13.8125 16.796875 
Q 15.71875 16.796875 17.015625 15.625 
Q 18.3125 14.453125 18.3125 12.59375 
Q 18.3125 9.90625 16.3125 7.90625 
Q 14.3125 5.90625 11.625 5.90625 
Q 11.078125 5.90625 10.890625 6 
" id="Cmmi10-4a"/>
    </defs>
    <g transform="translate(225.62 83.417)scale(0.16 -0.16)">
     <use transform="translate(0.0 0.6875)" xlink:href="#Cmmi10-4a"/>
     <use transform="translate(55.419921875 0.6875)" xlink:href="#Cmmi10-61"/>
     <use transform="translate(108.203125 0.6875)" xlink:href="#Cmmi10-69"/>
     <use transform="translate(142.626953125 0.6875)" xlink:href="#Cmmi10-70"/>
     <use transform="translate(192.919921875 0.6875)" xlink:href="#Cmmi10-75"/>
     <use transform="translate(250.09765625 0.6875)" xlink:href="#Cmmi10-72"/>
    </g>
   </g>
   <g id="legend_1">
    <g id="patch_15">
     <path d="M 17.402969 236.9659 
L 391.917031 236.9659 
Q 393.917031 236.9659 393.917031 234.9659 
L 393.917031 198.89215 
Q 393.917031 196.89215 391.917031 196.89215 
L 17.402969 196.89215 
Q 15.402969 196.89215 15.402969 198.89215 
L 15.402969 234.9659 
Q 15.402969 236.9659 17.402969 236.9659 
z
" style="fill:#ffffff;stroke:#000000;stroke-linejoin:miter;"/>
    </g>
    <g id="line2d_32"/>
    <g id="line2d_33">
     <g>
      <use style="fill:#0000ff;opacity:0.4;stroke:#000000;stroke-linejoin:miter;stroke-width:0.5;" x="29.40296875" xlink:href="#mf5c24464af" y="217.22824375"/>
     </g>
    </g>
    <g id="text_18">
     <!-- Jaipur diopside calculated -->
     <defs>
      <path d="M 9.8125 72.90625 
L 19.671875 72.90625 
L 19.671875 5.078125 
Q 19.671875 -8.109375 14.671875 -14.0625 
Q 9.671875 -20.015625 -1.421875 -20.015625 
L -5.171875 -20.015625 
L -5.171875 -11.71875 
L -2.09375 -11.71875 
Q 4.4375 -11.71875 7.125 -8.046875 
Q 9.8125 -4.390625 9.8125 5.078125 
z
" id="BitstreamVeraSans-Roman-4a"/>
      <path d="M 9.421875 54.6875 
L 18.40625 54.6875 
L 18.40625 0 
L 9.421875 0 
z
M 9.421875 75.984375 
L 18.40625 75.984375 
L 18.40625 64.59375 
L 9.421875 64.59375 
z
" id="BitstreamVeraSans-Roman-69"/>
      <path d="M 56.203125 29.59375 
L 56.203125 25.203125 
L 14.890625 25.203125 
Q 15.484375 15.921875 20.484375 11.0625 
Q 25.484375 6.203125 34.421875 6.203125 
Q 39.59375 6.203125 44.453125 7.46875 
Q 49.3125 8.734375 54.109375 11.28125 
L 54.109375 2.78125 
Q 49.265625 0.734375 44.1875 -0.34375 
Q 39.109375 -1.421875 33.890625 -1.421875 
Q 20.796875 -1.421875 13.15625 6.1875 
Q 5.515625 13.8125 5.515625 26.8125 
Q 5.515625 40.234375 12.765625 48.109375 
Q 20.015625 56 32.328125 56 
Q 43.359375 56 49.78125 48.890625 
Q 56.203125 41.796875 56.203125 29.59375 
M 47.21875 32.234375 
Q 47.125 39.59375 43.09375 43.984375 
Q 39.0625 48.390625 32.421875 48.390625 
Q 24.90625 48.390625 20.390625 44.140625 
Q 15.875 39.890625 15.1875 32.171875 
z
" id="BitstreamVeraSans-Roman-65"/>
      <path d="M 45.40625 46.390625 
L 45.40625 75.984375 
L 54.390625 75.984375 
L 54.390625 0 
L 45.40625 0 
L 45.40625 8.203125 
Q 42.578125 3.328125 38.25 0.953125 
Q 33.9375 -1.421875 27.875 -1.421875 
Q 17.96875 -1.421875 11.734375 6.484375 
Q 5.515625 14.40625 5.515625 27.296875 
Q 5.515625 40.1875 11.734375 48.09375 
Q 17.96875 56 27.875 56 
Q 33.9375 56 38.25 53.625 
Q 42.578125 51.265625 45.40625 46.390625 
M 14.796875 27.296875 
Q 14.796875 17.390625 18.875 11.75 
Q 22.953125 6.109375 30.078125 6.109375 
Q 37.203125 6.109375 41.296875 11.75 
Q 45.40625 17.390625 45.40625 27.296875 
Q 45.40625 37.203125 41.296875 42.84375 
Q 37.203125 48.484375 30.078125 48.484375 
Q 22.953125 48.484375 18.875 42.84375 
Q 14.796875 37.203125 14.796875 27.296875 
" id="BitstreamVeraSans-Roman-64"/>
      <path d="M 41.109375 46.296875 
Q 39.59375 47.171875 37.8125 47.578125 
Q 36.03125 48 33.890625 48 
Q 26.265625 48 22.1875 43.046875 
Q 18.109375 38.09375 18.109375 28.8125 
L 18.109375 0 
L 9.078125 0 
L 9.078125 54.6875 
L 18.109375 54.6875 
L 18.109375 46.1875 
Q 20.953125 51.171875 25.484375 53.578125 
Q 30.03125 56 36.53125 56 
Q 37.453125 56 38.578125 55.875 
Q 39.703125 55.765625 41.0625 55.515625 
z
" id="BitstreamVeraSans-Roman-72"/>
      <path d="M 18.109375 8.203125 
L 18.109375 -20.796875 
L 9.078125 -20.796875 
L 9.078125 54.6875 
L 18.109375 54.6875 
L 18.109375 46.390625 
Q 20.953125 51.265625 25.265625 53.625 
Q 29.59375 56 35.59375 56 
Q 45.5625 56 51.78125 48.09375 
Q 58.015625 40.1875 58.015625 27.296875 
Q 58.015625 14.40625 51.78125 6.484375 
Q 45.5625 -1.421875 35.59375 -1.421875 
Q 29.59375 -1.421875 25.265625 0.953125 
Q 20.953125 3.328125 18.109375 8.203125 
M 48.6875 27.296875 
Q 48.6875 37.203125 44.609375 42.84375 
Q 40.53125 48.484375 33.40625 48.484375 
Q 26.265625 48.484375 22.1875 42.84375 
Q 18.109375 37.203125 18.109375 27.296875 
Q 18.109375 17.390625 22.1875 11.75 
Q 26.265625 6.109375 33.40625 6.109375 
Q 40.53125 6.109375 44.609375 11.75 
Q 48.6875 17.390625 48.6875 27.296875 
" id="BitstreamVeraSans-Roman-70"/>
     </defs>
     <g transform="translate(47.40296875 208.4905875)scale(0.1 -0.1)">
      <use xlink:href="#BitstreamVeraSans-Roman-4a"/>
      <use x="29.4921875" xlink:href="#BitstreamVeraSans-Roman-61"/>
      <use x="90.771484375" xlink:href="#BitstreamVeraSans-Roman-69"/>
      <use x="118.5546875" xlink:href="#BitstreamVeraSans-Roman-70"/>
      <use x="182.03125" xlink:href="#BitstreamVeraSans-Roman-75"/>
      <use x="245.41015625" xlink:href="#BitstreamVeraSans-Roman-72"/>
      <use x="286.5234375" xlink:href="#BitstreamVeraSans-Roman-20"/>
      <use x="318.310546875" xlink:href="#BitstreamVeraSans-Roman-64"/>
      <use x="381.787109375" xlink:href="#BitstreamVeraSans-Roman-69"/>
      <use x="409.5703125" xlink:href="#BitstreamVeraSans-Roman-6f"/>
      <use x="470.751953125" xlink:href="#BitstreamVeraSans-Roman-70"/>
      <use x="534.228515625" xlink:href="#BitstreamVeraSans-Roman-73"/>
      <use x="586.328125" xlink:href="#BitstreamVeraSans-Roman-69"/>
      <use x="614.111328125" xlink:href="#BitstreamVeraSans-Roman-64"/>
      <use x="677.587890625" xlink:href="#BitstreamVeraSans-Roman-65"/>
      <use x="739.111328125" xlink:href="#BitstreamVeraSans-Roman-20"/>
      <use x="770.8984375" xlink:href="#BitstreamVeraSans-Roman-63"/>
      <use x="825.87890625" xlink:href="#BitstreamVeraSans-Roman-61"/>
      <use x="887.158203125" xlink:href="#BitstreamVeraSans-Roman-6c"/>
      <use x="914.94140625" xlink:href="#BitstreamVeraSans-Roman-63"/>
      <use x="969.921875" xlink:href="#BitstreamVeraSans-Roman-75"/>
      <use x="1033.30078125" xlink:href="#BitstreamVeraSans-Roman-6c"/>
      <use x="1061.08398438" xlink:href="#BitstreamVeraSans-Roman-61"/>
      <use x="1122.36328125" xlink:href="#BitstreamVeraSans-Roman-74"/>
      <use x="1161.57226562" xlink:href="#BitstreamVeraSans-Roman-65"/>
      <use x="1223.09570312" xlink:href="#BitstreamVeraSans-Roman-64"/>
     </g>
     <!-- from Arrhenius relation -->
     <defs>
      <path d="M 54.890625 33.015625 
L 54.890625 0 
L 45.90625 0 
L 45.90625 32.71875 
Q 45.90625 40.484375 42.875 44.328125 
Q 39.84375 48.1875 33.796875 48.1875 
Q 26.515625 48.1875 22.3125 43.546875 
Q 18.109375 38.921875 18.109375 30.90625 
L 18.109375 0 
L 9.078125 0 
L 9.078125 54.6875 
L 18.109375 54.6875 
L 18.109375 46.1875 
Q 21.34375 51.125 25.703125 53.5625 
Q 30.078125 56 35.796875 56 
Q 45.21875 56 50.046875 50.171875 
Q 54.890625 44.34375 54.890625 33.015625 
" id="BitstreamVeraSans-Roman-6e"/>
      <path d="M 37.109375 75.984375 
L 37.109375 68.5 
L 28.515625 68.5 
Q 23.6875 68.5 21.796875 66.546875 
Q 19.921875 64.59375 19.921875 59.515625 
L 19.921875 54.6875 
L 34.71875 54.6875 
L 34.71875 47.703125 
L 19.921875 47.703125 
L 19.921875 0 
L 10.890625 0 
L 10.890625 47.703125 
L 2.296875 47.703125 
L 2.296875 54.6875 
L 10.890625 54.6875 
L 10.890625 58.5 
Q 10.890625 67.625 15.140625 71.796875 
Q 19.390625 75.984375 28.609375 75.984375 
z
" id="BitstreamVeraSans-Roman-66"/>
      <path d="M 54.890625 33.015625 
L 54.890625 0 
L 45.90625 0 
L 45.90625 32.71875 
Q 45.90625 40.484375 42.875 44.328125 
Q 39.84375 48.1875 33.796875 48.1875 
Q 26.515625 48.1875 22.3125 43.546875 
Q 18.109375 38.921875 18.109375 30.90625 
L 18.109375 0 
L 9.078125 0 
L 9.078125 75.984375 
L 18.109375 75.984375 
L 18.109375 46.1875 
Q 21.34375 51.125 25.703125 53.5625 
Q 30.078125 56 35.796875 56 
Q 45.21875 56 50.046875 50.171875 
Q 54.890625 44.34375 54.890625 33.015625 
" id="BitstreamVeraSans-Roman-68"/>
      <path d="M 34.1875 63.1875 
L 20.796875 26.90625 
L 47.609375 26.90625 
z
M 28.609375 72.90625 
L 39.796875 72.90625 
L 67.578125 0 
L 57.328125 0 
L 50.6875 18.703125 
L 17.828125 18.703125 
L 11.1875 0 
L 0.78125 0 
z
" id="BitstreamVeraSans-Roman-41"/>
     </defs>
     <g transform="translate(47.40296875 219.6884)scale(0.1 -0.1)">
      <use xlink:href="#BitstreamVeraSans-Roman-66"/>
      <use x="35.205078125" xlink:href="#BitstreamVeraSans-Roman-72"/>
      <use x="76.287109375" xlink:href="#BitstreamVeraSans-Roman-6f"/>
      <use x="137.46875" xlink:href="#BitstreamVeraSans-Roman-6d"/>
      <use x="234.880859375" xlink:href="#BitstreamVeraSans-Roman-20"/>
      <use x="266.66796875" xlink:href="#BitstreamVeraSans-Roman-41"/>
      <use x="335.076171875" xlink:href="#BitstreamVeraSans-Roman-72"/>
      <use x="376.173828125" xlink:href="#BitstreamVeraSans-Roman-72"/>
      <use x="417.271484375" xlink:href="#BitstreamVeraSans-Roman-68"/>
      <use x="480.650390625" xlink:href="#BitstreamVeraSans-Roman-65"/>
      <use x="542.173828125" xlink:href="#BitstreamVeraSans-Roman-6e"/>
      <use x="605.552734375" xlink:href="#BitstreamVeraSans-Roman-69"/>
      <use x="633.3359375" xlink:href="#BitstreamVeraSans-Roman-75"/>
      <use x="696.71484375" xlink:href="#BitstreamVeraSans-Roman-73"/>
      <use x="748.814453125" xlink:href="#BitstreamVeraSans-Roman-20"/>
      <use x="780.6015625" xlink:href="#BitstreamVeraSans-Roman-72"/>
      <use x="821.68359375" xlink:href="#BitstreamVeraSans-Roman-65"/>
      <use x="883.20703125" xlink:href="#BitstreamVeraSans-Roman-6c"/>
      <use x="910.990234375" xlink:href="#BitstreamVeraSans-Roman-61"/>
      <use x="972.26953125" xlink:href="#BitstreamVeraSans-Roman-74"/>
      <use x="1011.47851562" xlink:href="#BitstreamVeraSans-Roman-69"/>
      <use x="1039.26171875" xlink:href="#BitstreamVeraSans-Roman-6f"/>
      <use x="1100.44335938" xlink:href="#BitstreamVeraSans-Roman-6e"/>
     </g>
     <!-- of Woods et al. 2000 -->
     <defs>
      <path d="M 10.6875 12.40625 
L 21 12.40625 
L 21 0 
L 10.6875 0 
z
" id="BitstreamVeraSans-Roman-2e"/>
      <path d="M 3.328125 72.90625 
L 13.28125 72.90625 
L 28.609375 11.28125 
L 43.890625 72.90625 
L 54.984375 72.90625 
L 70.3125 11.28125 
L 85.59375 72.90625 
L 95.609375 72.90625 
L 77.296875 0 
L 64.890625 0 
L 49.515625 63.28125 
L 33.984375 0 
L 21.578125 0 
z
" id="BitstreamVeraSans-Roman-57"/>
     </defs>
     <g transform="translate(47.40296875 230.8862125)scale(0.1 -0.1)">
      <use xlink:href="#BitstreamVeraSans-Roman-6f"/>
      <use x="61.181640625" xlink:href="#BitstreamVeraSans-Roman-66"/>
      <use x="96.38671875" xlink:href="#BitstreamVeraSans-Roman-20"/>
      <use x="128.173828125" xlink:href="#BitstreamVeraSans-Roman-57"/>
      <use x="226.97265625" xlink:href="#BitstreamVeraSans-Roman-6f"/>
      <use x="288.154296875" xlink:href="#BitstreamVeraSans-Roman-6f"/>
      <use x="349.3359375" xlink:href="#BitstreamVeraSans-Roman-64"/>
      <use x="412.8125" xlink:href="#BitstreamVeraSans-Roman-73"/>
      <use x="464.912109375" xlink:href="#BitstreamVeraSans-Roman-20"/>
      <use x="496.69921875" xlink:href="#BitstreamVeraSans-Roman-65"/>
      <use x="558.22265625" xlink:href="#BitstreamVeraSans-Roman-74"/>
      <use x="597.431640625" xlink:href="#BitstreamVeraSans-Roman-20"/>
      <use x="629.21875" xlink:href="#BitstreamVeraSans-Roman-61"/>
      <use x="690.498046875" xlink:href="#BitstreamVeraSans-Roman-6c"/>
      <use x="718.28125" xlink:href="#BitstreamVeraSans-Roman-2e"/>
      <use x="750.068359375" xlink:href="#BitstreamVeraSans-Roman-20"/>
      <use x="781.85546875" xlink:href="#BitstreamVeraSans-Roman-32"/>
      <use x="845.478515625" xlink:href="#BitstreamVeraSans-Roman-30"/>
      <use x="909.1015625" xlink:href="#BitstreamVeraSans-Roman-30"/>
      <use x="972.724609375" xlink:href="#BitstreamVeraSans-Roman-30"/>
     </g>
    </g>
    <g id="LineCollection_4">
     <path d="M 188.063906 222.228244 
L 188.063906 212.228244 
" style="fill:none;stroke:#000000;stroke-width:2.0;"/>
    </g>
    <g id="line2d_34">
     <g>
      <use style="stroke:#000000;" x="188.06390625" xlink:href="#ma8af7f3655" y="222.22824375"/>
     </g>
    </g>
    <g id="line2d_35">
     <g>
      <use style="stroke:#000000;" x="188.06390625" xlink:href="#ma8af7f3655" y="212.22824375"/>
     </g>
    </g>
    <g id="line2d_36"/>
    <g id="line2d_37">
     <g>
      <use style="fill:none;stroke:#000000;" x="188.06390625" xlink:href="#m18626653ed" y="217.22824375"/>
     </g>
    </g>
    <g id="text_19">
     <!-- Kunlun diopside -->
     <defs>
      <path d="M 9.8125 72.90625 
L 19.671875 72.90625 
L 19.671875 42.09375 
L 52.390625 72.90625 
L 65.09375 72.90625 
L 28.90625 38.921875 
L 67.671875 0 
L 54.6875 0 
L 19.671875 35.109375 
L 19.671875 0 
L 9.8125 0 
z
" id="BitstreamVeraSans-Roman-4b"/>
     </defs>
     <g transform="translate(206.06390625 214.08949375)scale(0.1 -0.1)">
      <use xlink:href="#BitstreamVeraSans-Roman-4b"/>
      <use x="65.498046875" xlink:href="#BitstreamVeraSans-Roman-75"/>
      <use x="128.876953125" xlink:href="#BitstreamVeraSans-Roman-6e"/>
      <use x="192.255859375" xlink:href="#BitstreamVeraSans-Roman-6c"/>
      <use x="220.0390625" xlink:href="#BitstreamVeraSans-Roman-75"/>
      <use x="283.41796875" xlink:href="#BitstreamVeraSans-Roman-6e"/>
      <use x="346.796875" xlink:href="#BitstreamVeraSans-Roman-20"/>
      <use x="378.583984375" xlink:href="#BitstreamVeraSans-Roman-64"/>
      <use x="442.060546875" xlink:href="#BitstreamVeraSans-Roman-69"/>
      <use x="469.84375" xlink:href="#BitstreamVeraSans-Roman-6f"/>
      <use x="531.025390625" xlink:href="#BitstreamVeraSans-Roman-70"/>
      <use x="594.501953125" xlink:href="#BitstreamVeraSans-Roman-73"/>
      <use x="646.6015625" xlink:href="#BitstreamVeraSans-Roman-69"/>
      <use x="674.384765625" xlink:href="#BitstreamVeraSans-Roman-64"/>
      <use x="737.861328125" xlink:href="#BitstreamVeraSans-Roman-65"/>
     </g>
     <!-- (this study) -->
     <defs>
      <path d="M 32.171875 -5.078125 
Q 28.375 -14.84375 24.75 -17.8125 
Q 21.140625 -20.796875 15.09375 -20.796875 
L 7.90625 -20.796875 
L 7.90625 -13.28125 
L 13.1875 -13.28125 
Q 16.890625 -13.28125 18.9375 -11.515625 
Q 21 -9.765625 23.484375 -3.21875 
L 25.09375 0.875 
L 2.984375 54.6875 
L 12.5 54.6875 
L 29.59375 11.921875 
L 46.6875 54.6875 
L 56.203125 54.6875 
z
" id="BitstreamVeraSans-Roman-79"/>
     </defs>
     <g transform="translate(206.06390625 225.28730625)scale(0.1 -0.1)">
      <use xlink:href="#BitstreamVeraSans-Roman-28"/>
      <use x="39.013671875" xlink:href="#BitstreamVeraSans-Roman-74"/>
      <use x="78.22265625" xlink:href="#BitstreamVeraSans-Roman-68"/>
      <use x="141.6015625" xlink:href="#BitstreamVeraSans-Roman-69"/>
      <use x="169.384765625" xlink:href="#BitstreamVeraSans-Roman-73"/>
      <use x="221.484375" xlink:href="#BitstreamVeraSans-Roman-20"/>
      <use x="253.271484375" xlink:href="#BitstreamVeraSans-Roman-73"/>
      <use x="305.37109375" xlink:href="#BitstreamVeraSans-Roman-74"/>
      <use x="344.580078125" xlink:href="#BitstreamVeraSans-Roman-75"/>
      <use x="407.958984375" xlink:href="#BitstreamVeraSans-Roman-64"/>
      <use x="471.435546875" xlink:href="#BitstreamVeraSans-Roman-79"/>
      <use x="530.615234375" xlink:href="#BitstreamVeraSans-Roman-29"/>
     </g>
    </g>
    <g id="LineCollection_5">
     <path d="M 298.002969 222.228244 
L 298.002969 212.228244 
" style="fill:none;stroke:#ff0000;stroke-width:2.0;"/>
    </g>
    <g id="line2d_38">
     <g>
      <use style="fill:#ff0000;stroke:#ff0000;" x="298.00296875" xlink:href="#mecd259c4ef" y="222.22824375"/>
     </g>
    </g>
    <g id="line2d_39">
     <g>
      <use style="fill:#ff0000;stroke:#ff0000;" x="298.00296875" xlink:href="#mecd259c4ef" y="212.22824375"/>
     </g>
    </g>
    <g id="line2d_40"/>
    <g id="line2d_41">
     <g>
      <use style="fill:none;stroke:#ff0000;stroke-linejoin:miter;" x="298.00296875" xlink:href="#mee48596a27" y="217.22824375"/>
     </g>
    </g>
    <g id="text_20">
     <!-- Jaipur diopside -->
     <g transform="translate(316.00296875 214.08949375)scale(0.1 -0.1)">
      <use xlink:href="#BitstreamVeraSans-Roman-4a"/>
      <use x="29.4921875" xlink:href="#BitstreamVeraSans-Roman-61"/>
      <use x="90.771484375" xlink:href="#BitstreamVeraSans-Roman-69"/>
      <use x="118.5546875" xlink:href="#BitstreamVeraSans-Roman-70"/>
      <use x="182.03125" xlink:href="#BitstreamVeraSans-Roman-75"/>
      <use x="245.41015625" xlink:href="#BitstreamVeraSans-Roman-72"/>
      <use x="286.5234375" xlink:href="#BitstreamVeraSans-Roman-20"/>
      <use x="318.310546875" xlink:href="#BitstreamVeraSans-Roman-64"/>
      <use x="381.787109375" xlink:href="#BitstreamVeraSans-Roman-69"/>
      <use x="409.5703125" xlink:href="#BitstreamVeraSans-Roman-6f"/>
      <use x="470.751953125" xlink:href="#BitstreamVeraSans-Roman-70"/>
      <use x="534.228515625" xlink:href="#BitstreamVeraSans-Roman-73"/>
      <use x="586.328125" xlink:href="#BitstreamVeraSans-Roman-69"/>
      <use x="614.111328125" xlink:href="#BitstreamVeraSans-Roman-64"/>
      <use x="677.587890625" xlink:href="#BitstreamVeraSans-Roman-65"/>
     </g>
     <!-- (this study) -->
     <g transform="translate(316.00296875 225.28730625)scale(0.1 -0.1)">
      <use xlink:href="#BitstreamVeraSans-Roman-28"/>
      <use x="39.013671875" xlink:href="#BitstreamVeraSans-Roman-74"/>
      <use x="78.22265625" xlink:href="#BitstreamVeraSans-Roman-68"/>
      <use x="141.6015625" xlink:href="#BitstreamVeraSans-Roman-69"/>
      <use x="169.384765625" xlink:href="#BitstreamVeraSans-Roman-73"/>
      <use x="221.484375" xlink:href="#BitstreamVeraSans-Roman-20"/>
      <use x="253.271484375" xlink:href="#BitstreamVeraSans-Roman-73"/>
      <use x="305.37109375" xlink:href="#BitstreamVeraSans-Roman-74"/>
      <use x="344.580078125" xlink:href="#BitstreamVeraSans-Roman-75"/>
      <use x="407.958984375" xlink:href="#BitstreamVeraSans-Roman-64"/>
      <use x="471.435546875" xlink:href="#BitstreamVeraSans-Roman-79"/>
      <use x="530.615234375" xlink:href="#BitstreamVeraSans-Roman-29"/>
     </g>
    </g>
   </g>
  </g>
 </g>
 <defs>
  <clipPath id="p311398ba3e">
   <rect height="184.14" width="334.8" x="54.0" y="23.76"/>
  </clipPath>
 </defs>
</svg>
